<?xml version="1.0" encoding="UTF-8"?>
<svg version="1.1" xmlns="http://www.w3.org/2000/svg" width="128" height="128">
<path d="M0 0 C2.82769358 0.814033 5.39506128 0.90515128 8.3203125 0.66796875 C8.8153125 2.15296875 8.8153125 2.15296875 9.3203125 3.66796875 C11.27190991 5.05767313 11.27190991 5.05767313 13.6328125 6.23046875 C14.41269531 6.64425781 15.19257812 7.05804688 15.99609375 7.484375 C17.4549359 8.22728117 18.93022902 8.93954568 20.42578125 9.60546875 C22.61056671 10.83075049 23.77114292 12.14795827 25.3203125 14.10546875 C27.4753216 16.72613309 29.52985383 18.71464768 32.3203125 20.66796875 C37.31308065 25.20684889 39.28939057 29.04061346 40.3203125 35.66796875 C40.9803125 36.32796875 41.6403125 36.98796875 42.3203125 37.66796875 C43.3203125 40.66796875 43.3203125 40.66796875 42.3203125 43.66796875 C44.3003125 44.16296875 44.3003125 44.16296875 46.3203125 44.66796875 C46.74875758 57.71741712 46.78921377 69.87810344 43.1953125 82.5 C42.18719566 85.60215859 42.18719566 85.60215859 42.3203125 88.66796875 C41.24009832 90.54071605 40.08372113 92.37023028 38.8828125 94.16796875 C36.96359989 97.05260347 35.41730804 99.37698212 34.3203125 102.66796875 C33.71960938 102.81105469 33.11890625 102.95414062 32.5 103.1015625 C29.51433847 103.87740645 28.47272621 105.4308925 26.4453125 107.73046875 C16.87113554 117.61958575 2.20847838 125.08613302 -11.6796875 125.66796875 C-12.58332031 125.70792969 -13.48695312 125.74789062 -14.41796875 125.7890625 C-30.37733472 126.14095513 -43.19594733 122.04171394 -56.40234375 113.12109375 C-58.69685286 111.52684755 -58.69685286 111.52684755 -61.6796875 110.66796875 C-62.1746875 109.67796875 -62.1746875 109.67796875 -62.6796875 108.66796875 C-63.3396875 108.33796875 -63.9996875 108.00796875 -64.6796875 107.66796875 C-64.7828125 107.04921875 -64.8859375 106.43046875 -64.9921875 105.79296875 C-65.97952684 102.7411926 -67.97640333 102.27706647 -70.6796875 100.66796875 C-72.54648296 98.00111809 -73.64965138 95.75807712 -74.6796875 92.66796875 C-75.97104731 89.52236997 -75.97104731 89.52236997 -78.6796875 87.66796875 C-79.14120573 85.30873919 -79.44489608 83.05510198 -79.6796875 80.66796875 C-79.76621582 79.82024902 -79.85274414 78.9725293 -79.94189453 78.09912109 C-80.22644243 75.18594109 -80.48674148 72.2713378 -80.7421875 69.35546875 C-80.83306641 68.37384766 -80.92394531 67.39222656 -81.01757812 66.38085938 C-81.56824386 60.12479981 -81.79617924 53.94730515 -81.6796875 47.66796875 C-81.0196875 47.66796875 -80.3596875 47.66796875 -79.6796875 47.66796875 C-79.67710938 47.07371094 -79.67453125 46.47945312 -79.671875 45.8671875 C-79.32444076 38.42051358 -76.87979122 32.80658187 -72.6796875 26.66796875 C-72.0196875 26.33796875 -71.3596875 26.00796875 -70.6796875 25.66796875 C-70.4115625 24.88421875 -70.1434375 24.10046875 -69.8671875 23.29296875 C-68.3881182 20.02344714 -66.74026895 19.39445059 -63.6796875 17.66796875 C-63.3496875 16.67796875 -63.0196875 15.68796875 -62.6796875 14.66796875 C-60.90234375 13.6875 -60.90234375 13.6875 -58.6796875 12.66796875 C-57.14557326 11.58232997 -55.62575669 10.47633317 -54.1171875 9.35546875 C-38.38183882 -1.69373229 -18.55771169 -5.89969043 0 0 Z M-76.6796875 36.66796875 C-75.6796875 38.66796875 -75.6796875 38.66796875 -75.6796875 38.66796875 Z M-77.6796875 38.66796875 C-76.6796875 40.66796875 -76.6796875 40.66796875 -76.6796875 40.66796875 Z M43.3203125 44.66796875 C44.3203125 46.66796875 44.3203125 46.66796875 44.3203125 46.66796875 Z M44.3203125 48.66796875 C45.3203125 51.66796875 45.3203125 51.66796875 45.3203125 51.66796875 Z M-80.6796875 50.66796875 C-79.6796875 53.66796875 -79.6796875 53.66796875 -79.6796875 53.66796875 Z M-78.6796875 81.66796875 C-77.6796875 84.66796875 -77.6796875 84.66796875 -77.6796875 84.66796875 Z " fill="#303437" transform="translate(81.6796875,2.33203125)"/>
<path d="M0 0 C2.82769358 0.814033 5.39506128 0.90515128 8.3203125 0.66796875 C8.8153125 2.15296875 8.8153125 2.15296875 9.3203125 3.66796875 C11.27190991 5.05767313 11.27190991 5.05767313 13.6328125 6.23046875 C14.41269531 6.64425781 15.19257812 7.05804688 15.99609375 7.484375 C17.4549359 8.22728117 18.93022902 8.93954568 20.42578125 9.60546875 C22.61056671 10.83075049 23.77114292 12.14795827 25.3203125 14.10546875 C27.4753216 16.72613309 29.52985383 18.71464768 32.3203125 20.66796875 C37.31308065 25.20684889 39.28939057 29.04061346 40.3203125 35.66796875 C40.9803125 36.32796875 41.6403125 36.98796875 42.3203125 37.66796875 C43.3203125 40.66796875 43.3203125 40.66796875 42.3203125 43.66796875 C44.3003125 44.16296875 44.3003125 44.16296875 46.3203125 44.66796875 C46.74875758 57.71741712 46.78921377 69.87810344 43.1953125 82.5 C42.18719566 85.60215859 42.18719566 85.60215859 42.3203125 88.66796875 C41.24009832 90.54071605 40.08372113 92.37023028 38.8828125 94.16796875 C36.96359989 97.05260347 35.41730804 99.37698212 34.3203125 102.66796875 C33.71960938 102.81105469 33.11890625 102.95414062 32.5 103.1015625 C29.51433847 103.87740645 28.47272621 105.4308925 26.4453125 107.73046875 C16.87113554 117.61958575 2.20847838 125.08613302 -11.6796875 125.66796875 C-12.58332031 125.70792969 -13.48695312 125.74789062 -14.41796875 125.7890625 C-30.37733472 126.14095513 -43.19594733 122.04171394 -56.40234375 113.12109375 C-58.69685286 111.52684755 -58.69685286 111.52684755 -61.6796875 110.66796875 C-62.1746875 109.67796875 -62.1746875 109.67796875 -62.6796875 108.66796875 C-63.3396875 108.33796875 -63.9996875 108.00796875 -64.6796875 107.66796875 C-64.7828125 107.04921875 -64.8859375 106.43046875 -64.9921875 105.79296875 C-65.97952684 102.7411926 -67.97640333 102.27706647 -70.6796875 100.66796875 C-72.54648296 98.00111809 -73.64965138 95.75807712 -74.6796875 92.66796875 C-75.97104731 89.52236997 -75.97104731 89.52236997 -78.6796875 87.66796875 C-79.14120573 85.30873919 -79.44489608 83.05510198 -79.6796875 80.66796875 C-79.76621582 79.82024902 -79.85274414 78.9725293 -79.94189453 78.09912109 C-80.22644243 75.18594109 -80.48674148 72.2713378 -80.7421875 69.35546875 C-80.83306641 68.37384766 -80.92394531 67.39222656 -81.01757812 66.38085938 C-81.56824386 60.12479981 -81.79617924 53.94730515 -81.6796875 47.66796875 C-81.0196875 47.66796875 -80.3596875 47.66796875 -79.6796875 47.66796875 C-79.67710938 47.07371094 -79.67453125 46.47945312 -79.671875 45.8671875 C-79.32444076 38.42051358 -76.87979122 32.80658187 -72.6796875 26.66796875 C-72.0196875 26.33796875 -71.3596875 26.00796875 -70.6796875 25.66796875 C-70.4115625 24.88421875 -70.1434375 24.10046875 -69.8671875 23.29296875 C-68.3881182 20.02344714 -66.74026895 19.39445059 -63.6796875 17.66796875 C-63.3496875 16.67796875 -63.0196875 15.68796875 -62.6796875 14.66796875 C-60.90234375 13.6875 -60.90234375 13.6875 -58.6796875 12.66796875 C-57.14557326 11.58232997 -55.62575669 10.47633317 -54.1171875 9.35546875 C-38.38183882 -1.69373229 -18.55771169 -5.89969043 0 0 Z M-52.6796875 16.66796875 C-50.0396875 14.68796875 -47.3996875 12.70796875 -44.6796875 10.66796875 C-45.3396875 10.33796875 -45.9996875 10.00796875 -46.6796875 9.66796875 C-62.11969167 20.08429509 -70.90967263 31.61529709 -75.6796875 49.66796875 C-75.87175781 50.30476563 -76.06382813 50.9415625 -76.26171875 51.59765625 C-78.68103653 63.58119294 -75.98667742 74.55857414 -71.6796875 85.66796875 C-71.33035156 86.59351562 -70.98101562 87.5190625 -70.62109375 88.47265625 C-64.47560311 102.5645139 -51.1236497 112.80733396 -37.3203125 118.66796875 C-24.27052448 123.60990031 -8.62986185 123.25368073 4.26513672 117.85351562 C14.71273123 113.02089396 24.54446409 106.91544174 30.3203125 96.66796875 C30.2818283 93.33002952 30.2818283 93.33002952 29.3203125 90.66796875 C29.9803125 90.66796875 30.6403125 90.66796875 31.3203125 90.66796875 C39.14469264 76.90785195 40.65387649 60.46845566 36.6953125 45.23046875 C34.75405866 39.22644793 32.15945016 33.70272357 28.3203125 28.66796875 C27.6603125 28.33796875 27.0003125 28.00796875 26.3203125 27.66796875 C26.3203125 28.32796875 26.3203125 28.98796875 26.3203125 29.66796875 C25.7634375 29.93609375 25.2065625 30.20421875 24.6328125 30.48046875 C22.12318727 31.76919522 19.72697014 33.19723353 17.3203125 34.66796875 C17.9803125 33.34796875 18.6403125 32.02796875 19.3203125 30.66796875 C17.0103125 30.00796875 14.7003125 29.34796875 12.3203125 28.66796875 C11.8253125 30.15296875 11.8253125 30.15296875 11.3203125 31.66796875 C13.49376377 34.92611566 13.49376377 34.92611566 16.3203125 37.66796875 C17.3103125 37.66796875 18.3003125 37.66796875 19.3203125 37.66796875 C19.6503125 37.00796875 19.9803125 36.34796875 20.3203125 35.66796875 C22.48905502 36.17400867 24.31998877 36.66780688 26.3203125 37.66796875 C26.3203125 38.66796875 26.3203125 38.66796875 24.8203125 40.23046875 C24.3253125 40.70484375 23.8303125 41.17921875 23.3203125 41.66796875 C27.36653752 42.03776888 27.36653752 42.03776888 30.3203125 39.66796875 C29.3303125 41.31796875 28.3403125 42.96796875 27.3203125 44.66796875 C28.6403125 44.66796875 29.9603125 44.66796875 31.3203125 44.66796875 C31.3203125 45.32796875 31.3203125 45.98796875 31.3203125 46.66796875 C28.0203125 46.33796875 24.7203125 46.00796875 21.3203125 45.66796875 C21.8153125 47.70984375 21.8153125 47.70984375 22.3203125 49.79296875 C24.53714118 61.16626373 23.71524971 70.95530931 19.3203125 81.66796875 C19.536875 81.07371094 19.7534375 80.47945313 19.9765625 79.8671875 C22.17836571 73.31274553 22.67380524 67.55453095 22.3203125 60.66796875 C19.98666898 63.59699933 18.27070414 66.55365078 16.6328125 69.91796875 C16.19582031 70.81 15.75882812 71.70203125 15.30859375 72.62109375 C14.98246094 73.2965625 14.65632813 73.97203125 14.3203125 74.66796875 C14.3203125 71.66796875 14.3203125 71.66796875 14.6328125 68.98046875 C14.19167196 64.30437899 12.34284121 61.21943998 9.3203125 57.66796875 C5.76115323 54.82381915 2.96455606 53.66796875 -1.6796875 53.66796875 C-1.3496875 52.82234375 -1.0196875 51.97671875 -0.6796875 51.10546875 C0.60820109 46.67835174 1.40917495 42.98517604 -0.625 38.65625 C-2.64353939 35.32375573 -4.89326617 32.37640967 -7.4921875 29.48046875 C-9.6796875 26.66796875 -9.6796875 26.66796875 -9.9921875 23.79296875 C-9.8890625 23.09171875 -9.7859375 22.39046875 -9.6796875 21.66796875 C-18.90439722 18.59306551 -28.5624752 21.78867787 -37.01171875 25.765625 C-47.60350028 31.92849591 -53.84260635 41.1567253 -57.6796875 52.66796875 C-58.44424571 66.44471966 -57.59997684 77.52788391 -48.6796875 88.66796875 C-46.4380723 91.1076383 -44.11745157 93.42493732 -41.6796875 95.66796875 C-50.52835091 88.76601129 -55.74883547 80.74244086 -58.3671875 69.79296875 C-59.06133265 62.85151721 -58.83971524 56.68022602 -57.125 49.91796875 C-56.37921052 46.14976929 -56.5581193 42.49736705 -56.6796875 38.66796875 C-57.0096875 38.66796875 -57.3396875 38.66796875 -57.6796875 38.66796875 C-58.3396875 40.64796875 -58.9996875 42.62796875 -59.6796875 44.66796875 C-61.3296875 44.66796875 -62.9796875 44.66796875 -64.6796875 44.66796875 C-65.3046875 41.79296875 -65.3046875 41.79296875 -65.6796875 38.66796875 C-63.6796875 36.66796875 -63.6796875 36.66796875 -61.6796875 35.79296875 C-59.25947346 34.43159835 -58.69350128 33.2025032 -57.6796875 30.66796875 C-56.3596875 30.66796875 -55.0396875 30.66796875 -53.6796875 30.66796875 C-50.86700671 28.43866619 -50.86700671 28.43866619 -48.6796875 25.66796875 C-48.6796875 24.67796875 -48.6796875 23.68796875 -48.6796875 22.66796875 C-48.36880382 20.99696898 -48.03888418 19.32925338 -47.6796875 17.66796875 C-47.6796875 18.65796875 -47.6796875 19.64796875 -47.6796875 20.66796875 C-46.2565625 20.63703125 -46.2565625 20.63703125 -44.8046875 20.60546875 C-41.6796875 20.66796875 -41.6796875 20.66796875 -39.6796875 21.66796875 C-40.37910346 18.52059693 -41.44047448 15.64207999 -42.6796875 12.66796875 C-41.6896875 12.66796875 -40.6996875 12.66796875 -39.6796875 12.66796875 C-39.1846875 13.65796875 -39.1846875 13.65796875 -38.6796875 14.66796875 C-38.3496875 13.67796875 -38.0196875 12.68796875 -37.6796875 11.66796875 C-36.3596875 11.99796875 -35.0396875 12.32796875 -33.6796875 12.66796875 C-34.0096875 13.65796875 -34.3396875 14.64796875 -34.6796875 15.66796875 C-34.1846875 16.65796875 -34.1846875 16.65796875 -33.6796875 17.66796875 C-33.0196875 17.66796875 -32.3596875 17.66796875 -31.6796875 17.66796875 C-31.4321875 16.69859375 -31.1846875 15.72921875 -30.9296875 14.73046875 C-30.3109375 13.21453125 -30.3109375 13.21453125 -29.6796875 11.66796875 C-27.6171875 10.98046875 -27.6171875 10.98046875 -25.6796875 10.66796875 C-25.3496875 9.67796875 -25.0196875 8.68796875 -24.6796875 7.66796875 C-22.6171875 6.48046875 -22.6171875 6.48046875 -20.6796875 5.66796875 C-32.91372101 5.14737158 -42.82636374 9.66692292 -52.6796875 16.66796875 Z M-76.6796875 36.66796875 C-75.6796875 38.66796875 -75.6796875 38.66796875 -75.6796875 38.66796875 Z M-77.6796875 38.66796875 C-76.6796875 40.66796875 -76.6796875 40.66796875 -76.6796875 40.66796875 Z M43.3203125 44.66796875 C44.3203125 46.66796875 44.3203125 46.66796875 44.3203125 46.66796875 Z M44.3203125 48.66796875 C45.3203125 51.66796875 45.3203125 51.66796875 45.3203125 51.66796875 Z M-80.6796875 50.66796875 C-79.6796875 53.66796875 -79.6796875 53.66796875 -79.6796875 53.66796875 Z M-78.6796875 81.66796875 C-77.6796875 84.66796875 -77.6796875 84.66796875 -77.6796875 84.66796875 Z " fill="#4E5255" transform="translate(81.6796875,2.33203125)"/>
<path d="M0 0 C-0.9590625 0.680625 -0.9590625 0.680625 -1.9375 1.375 C-4.09702406 2.83921726 -4.09702406 2.83921726 -5 5 C-5.825 5.268125 -6.65 5.53625 -7.5 5.8125 C-8.325 6.204375 -9.15 6.59625 -10 7 C-10.89386164 9.54775306 -10.89386164 9.54775306 -11 12 C-11.66 12 -12.32 12 -13 12 C-13.495 10.515 -13.495 10.515 -14 9 C-13.67 8.34 -13.34 7.68 -13 7 C-14.32 6.67 -15.64 6.34 -17 6 C-17.33 6.99 -17.66 7.98 -18 9 C-18.495 8.01 -18.495 8.01 -19 7 C-19.99 7 -20.98 7 -22 7 C-21.484375 7.928125 -20.96875 8.85625 -20.4375 9.8125 C-19 13 -19 13 -20 16 C-20.78375 15.835 -21.5675 15.67 -22.375 15.5 C-24.88208039 14.9376293 -24.88208039 14.9376293 -27 15 C-27 14.01 -27 13.02 -27 12 C-27.73080266 13.97746603 -28.39421747 15.98072489 -29 18 C-28.67 18.66 -28.34 19.32 -28 20 C-28.99 20.66 -29.98 21.32 -31 22 C-31.66 22.99 -32.32 23.98 -33 25 C-34.32 25 -35.64 25 -37 25 C-37.2475 25.61875 -37.495 26.2375 -37.75 26.875 C-39.22879539 29.38895216 -40.37921165 29.8534051 -43 31 C-43.66 31.66 -44.32 32.32 -45 33 C-44.67801034 36.09926819 -44.67801034 36.09926819 -44 39 C-42.35 39 -40.7 39 -39 39 C-38.34 37.02 -37.68 35.04 -37 33 C-36.67 33 -36.34 33 -36 33 C-35.85068483 37.70342778 -35.84128262 41.86791032 -37 46.4375 C-39.63475895 57.39354803 -37.80690964 68.52104692 -32.25 78.3125 C-26.78349859 86.65963328 -21.49813594 90.90246262 -12 94 C-11.09378906 94.35320312 -10.18757813 94.70640625 -9.25390625 95.0703125 C0.74438005 97.92696573 11.91956546 97.4614791 21.0625 92.4375 C22.71958984 91.44556641 22.71958984 91.44556641 24.41015625 90.43359375 C25.26480469 89.96050781 26.11945313 89.48742187 27 89 C27.66 89.33 28.32 89.66 29 90 C27.58531689 90.96125903 26.1681636 91.91888325 24.75 92.875 C23.96109375 93.40867187 23.1721875 93.94234375 22.359375 94.4921875 C20.28444308 95.81822015 18.22385028 96.94928175 16 98 C16 98.99 16 99.98 16 101 C17.485 101.495 17.485 101.495 19 102 C19.33 101.34 19.66 100.68 20 100 C20 100.66 20 101.32 20 102 C21.485 102.495 21.485 102.495 23 103 C22.505 104.98 22.505 104.98 22 107 C21.34 107 20.68 107 20 107 C20 107.99 20 108.98 20 110 C33.00172119 104.02156845 33.00172119 104.02156845 44 95 C44.99 96.485 44.99 96.485 46 98 C31.87361417 110.51353075 17.47673876 116.80983107 -1.62890625 116.27734375 C-19.16090794 114.83496586 -32.91172252 105.55574247 -44.12890625 92.52734375 C-48.85096212 86.25506652 -51.53948733 79.41037214 -54 72 C-54.2475 71.32582031 -54.495 70.65164062 -54.75 69.95703125 C-58.87638475 56.97611256 -55.89608016 41.8332943 -50.3125 29.875 C-44.92397262 19.69667051 -36.68967266 9.03043419 -26 4 C-25.34 4.33 -24.68 4.66 -24 5 C-26.64 6.98 -29.28 8.96 -32 11 C-31.29875 10.52949219 -30.5975 10.05898438 -29.875 9.57421875 C-20.05302366 3.12854677 -11.92293414 -0.23845868 0 0 Z " fill="#323639" transform="translate(61,8)"/>
<path d="M0 0 C2.82769358 0.814033 5.39506128 0.90515128 8.3203125 0.66796875 C8.8153125 2.15296875 8.8153125 2.15296875 9.3203125 3.66796875 C11.27190991 5.05767313 11.27190991 5.05767313 13.6328125 6.23046875 C14.41269531 6.64425781 15.19257812 7.05804688 15.99609375 7.484375 C17.4549359 8.22728117 18.93022902 8.93954568 20.42578125 9.60546875 C22.61056671 10.83075049 23.77114292 12.14795827 25.3203125 14.10546875 C27.4753216 16.72613309 29.52985383 18.71464768 32.3203125 20.66796875 C37.31308065 25.20684889 39.28939057 29.04061346 40.3203125 35.66796875 C40.9803125 36.32796875 41.6403125 36.98796875 42.3203125 37.66796875 C43.3203125 40.66796875 43.3203125 40.66796875 42.3203125 43.66796875 C44.3003125 44.16296875 44.3003125 44.16296875 46.3203125 44.66796875 C46.74875758 57.71741712 46.78921377 69.87810344 43.1953125 82.5 C42.18719566 85.60215859 42.18719566 85.60215859 42.3203125 88.66796875 C41.24009832 90.54071605 40.08372113 92.37023028 38.8828125 94.16796875 C36.96359989 97.05260347 35.41730804 99.37698212 34.3203125 102.66796875 C33.71960938 102.81105469 33.11890625 102.95414062 32.5 103.1015625 C29.51433847 103.87740645 28.47272621 105.4308925 26.4453125 107.73046875 C16.87113554 117.61958575 2.20847838 125.08613302 -11.6796875 125.66796875 C-12.58332031 125.70792969 -13.48695312 125.74789062 -14.41796875 125.7890625 C-30.37733472 126.14095513 -43.19594733 122.04171394 -56.40234375 113.12109375 C-58.69685286 111.52684755 -58.69685286 111.52684755 -61.6796875 110.66796875 C-62.1746875 109.67796875 -62.1746875 109.67796875 -62.6796875 108.66796875 C-63.3396875 108.33796875 -63.9996875 108.00796875 -64.6796875 107.66796875 C-64.7828125 107.04921875 -64.8859375 106.43046875 -64.9921875 105.79296875 C-65.97952684 102.7411926 -67.97640333 102.27706647 -70.6796875 100.66796875 C-72.54648296 98.00111809 -73.64965138 95.75807712 -74.6796875 92.66796875 C-75.97104731 89.52236997 -75.97104731 89.52236997 -78.6796875 87.66796875 C-79.14120573 85.30873919 -79.44489608 83.05510198 -79.6796875 80.66796875 C-79.76621582 79.82024902 -79.85274414 78.9725293 -79.94189453 78.09912109 C-80.22644243 75.18594109 -80.48674148 72.2713378 -80.7421875 69.35546875 C-80.83306641 68.37384766 -80.92394531 67.39222656 -81.01757812 66.38085938 C-81.56824386 60.12479981 -81.79617924 53.94730515 -81.6796875 47.66796875 C-81.0196875 47.66796875 -80.3596875 47.66796875 -79.6796875 47.66796875 C-79.67710938 47.07371094 -79.67453125 46.47945312 -79.671875 45.8671875 C-79.32444076 38.42051358 -76.87979122 32.80658187 -72.6796875 26.66796875 C-72.0196875 26.33796875 -71.3596875 26.00796875 -70.6796875 25.66796875 C-70.4115625 24.88421875 -70.1434375 24.10046875 -69.8671875 23.29296875 C-68.3881182 20.02344714 -66.74026895 19.39445059 -63.6796875 17.66796875 C-63.3496875 16.67796875 -63.0196875 15.68796875 -62.6796875 14.66796875 C-60.90234375 13.6875 -60.90234375 13.6875 -58.6796875 12.66796875 C-57.14557326 11.58232997 -55.62575669 10.47633317 -54.1171875 9.35546875 C-38.38183882 -1.69373229 -18.55771169 -5.89969043 0 0 Z M-43.6796875 7.66796875 C-44.04699514 8.99234558 -44.38099027 10.32645138 -44.6796875 11.66796875 C-47.18152984 13.67790551 -49.88055976 15.06846719 -52.6796875 16.66796875 C-50.0396875 14.68796875 -47.3996875 12.70796875 -44.6796875 10.66796875 C-45.3396875 10.33796875 -45.9996875 10.00796875 -46.6796875 9.66796875 C-62.11969167 20.08429509 -70.90967263 31.61529709 -75.6796875 49.66796875 C-75.87175781 50.30476563 -76.06382813 50.9415625 -76.26171875 51.59765625 C-78.68103653 63.58119294 -75.98667742 74.55857414 -71.6796875 85.66796875 C-71.33035156 86.59351562 -70.98101562 87.5190625 -70.62109375 88.47265625 C-64.47560311 102.5645139 -51.1236497 112.80733396 -37.3203125 118.66796875 C-24.27052448 123.60990031 -8.62986185 123.25368073 4.26513672 117.85351562 C20.85472238 110.1798649 31.90795083 98.62277387 38.390625 81.41015625 C38.85082031 80.05277344 38.85082031 80.05277344 39.3203125 78.66796875 C39.68769531 77.61996094 39.68769531 77.61996094 40.0625 76.55078125 C44.22453896 61.89812352 41.30647449 46.29061355 34.6328125 32.98046875 C31.27804423 27.16892573 27.04115542 22.40555225 22.3203125 17.66796875 C21.77890625 17.10335938 21.2375 16.53875 20.6796875 15.95703125 C8.09649966 3.94580649 -7.72319384 2.02634514 -24.2421875 2.28125 C-31.18411997 2.55977191 -37.91353727 3.44612465 -43.6796875 7.66796875 Z M-76.6796875 36.66796875 C-75.6796875 38.66796875 -75.6796875 38.66796875 -75.6796875 38.66796875 Z M-77.6796875 38.66796875 C-76.6796875 40.66796875 -76.6796875 40.66796875 -76.6796875 40.66796875 Z M43.3203125 44.66796875 C44.3203125 46.66796875 44.3203125 46.66796875 44.3203125 46.66796875 Z M44.3203125 48.66796875 C45.3203125 51.66796875 45.3203125 51.66796875 45.3203125 51.66796875 Z M-80.6796875 50.66796875 C-79.6796875 53.66796875 -79.6796875 53.66796875 -79.6796875 53.66796875 Z M-78.6796875 81.66796875 C-77.6796875 84.66796875 -77.6796875 84.66796875 -77.6796875 84.66796875 Z " fill="#BCC1C4" transform="translate(81.6796875,2.33203125)"/>
<path d="M0 0 C7.38798915 5.91039132 10.31342712 15.94200483 12 25 C12.2768279 27.73685886 12.33424323 30.4379412 12.3125 33.1875 C12.30621582 34.28952759 12.30621582 34.28952759 12.29980469 35.41381836 C12.09649567 45.38136749 9.93628105 54.31895402 5 63 C4.34 63 3.68 63 3 63 C3.268125 63.86625 3.53625 64.7325 3.8125 65.625 C4.01346156 69.24230813 3.87689531 69.70844468 1.75 72.375 C-1 75 -1 75 -4 75 C-6.22763693 76.60426682 -6.22763693 76.60426682 -8.5625 78.6875 C-13.77878619 82.99361308 -19.96667103 88 -27 88 C-27 87.01 -27 86.02 -27 85 C-26.34 85 -25.68 85 -25 85 C-25 83.68 -25 82.36 -25 81 C-27.31 80.67 -29.62 80.34 -32 80 C-32 78.35 -32 76.7 -32 75 C-31.14535156 74.59007813 -30.29070312 74.18015625 -29.41015625 73.7578125 C-28.30542969 73.21898438 -27.20070313 72.68015625 -26.0625 72.125 C-24.96035156 71.59132813 -23.85820313 71.05765625 -22.72265625 70.5078125 C-19.90595489 69.28340155 -19.90595489 69.28340155 -19 67 C-20.98 67.495 -20.98 67.495 -23 68 C-23 67.34 -23 66.68 -23 66 C-25.31 66 -27.62 66 -30 66 C-29.505 65.01 -29.505 65.01 -29 64 C-26.69 64 -24.38 64 -22 64 C-21.5875 62.80375 -21.175 61.6075 -20.75 60.375 C-19.30909114 56.51664214 -17.41600878 53.35123798 -15 50 C-14.34 49.01 -13.68 48.02 -13 47 C-12.27876953 46.07960938 -12.27876953 46.07960938 -11.54296875 45.140625 C-9.83789612 42.77510652 -8.58819054 40.37033733 -7.3125 37.75 C-6.87550781 36.85796875 -6.43851563 35.9659375 -5.98828125 35.046875 C-5.66214844 34.37140625 -5.33601563 33.6959375 -5 33 C-4.67 33 -4.34 33 -4 33 C-3.61000809 40.59762024 -4.39241413 46.84466021 -7 54 C-1.98666676 41.78000024 -1.91113611 30.74156354 -5 18 C-1.7 18.33 1.6 18.66 5 19 C5 18.34 5 17.68 5 17 C3.68 16.67 2.36 16.34 1 16 C1.99 14.68 2.98 13.36 4 12 C3.401875 12.515625 2.80375 13.03125 2.1875 13.5625 C1.465625 14.036875 0.74375 14.51125 0 15 C-0.99 14.67 -1.98 14.34 -3 14 C-2.505 13.525625 -2.01 13.05125 -1.5 12.5625 C0.11542197 11.24076302 0.11542197 11.24076302 0 10 C-2.81509993 7.7226499 -2.81509993 7.7226499 -6 8 C-6.66 8.66 -7.32 9.32 -8 10 C-11.82946843 8.54744301 -13.12050295 6.57104439 -15 3 C-14.34 2.34 -13.68 1.68 -13 1 C-11.02 1.66 -9.04 2.32 -7 3 C-7.66 4.32 -8.32 5.64 -9 7 C-8.51789063 6.6390625 -8.03578125 6.278125 -7.5390625 5.90625 C-6.90742187 5.4421875 -6.27578125 4.978125 -5.625 4.5 C-4.99851562 4.0359375 -4.37203125 3.571875 -3.7265625 3.09375 C-2 2 -2 2 0 2 C0 1.34 0 0.68 0 0 Z " fill="#35393C" transform="translate(108,30)"/>
<path d="M0 0 C3.33333333 0 6.66666667 0 10 0 C9.855625 0.845625 9.71125 1.69125 9.5625 2.5625 C10.13673732 7.07436466 12.00596427 8.29396702 15.2421875 11.28125 C18.68401596 14.64659338 19.88984524 17.76626665 20.3125 22.5 C20.00287391 25.96781224 19.26184696 28.76651717 18 32 C18.86625 32.0825 19.7325 32.165 20.625 32.25 C25.1335895 33.25190878 28.36330021 34.91876447 31.265625 38.609375 C33.70060959 42.48477301 34.44149911 45.47463412 34 50 C33.773125 49.46375 33.54625 48.9275 33.3125 48.375 C31.3054879 44.74326382 28.77164705 40.88582352 25 39 C19.64956244 38.3153005 15.35130479 38.25948487 10.875 41.5 C9.92625 42.325 8.9775 43.15 8 44 C7.01 43.505 7.01 43.505 6 43 C5.66666667 41.66666667 5.33333333 40.33333333 5 39 C4.01 38.505 4.01 38.505 3 38 C3 36.35 3 34.7 3 33 C-0.465 32.505 -0.465 32.505 -4 32 C-2.35 32.66 -0.7 33.32 1 34 C1 35.32 1 36.64 1 38 C0.34 38 -0.32 38 -1 38 C-1.33 39.65 -1.66 41.3 -2 43 C-3.32 43 -4.64 43 -6 43 C-6 42.34 -6 41.68 -6 41 C-9.99002031 39.18635441 -13.61203098 38.23094574 -18 38 C-21.56029427 39.36934395 -24.80501708 40.81727477 -27 44 C-27.83681715 46.65255246 -28.41870838 49.27240084 -29 52 C-29.33 52 -29.66 52 -30 52 C-30.68377965 45.57247126 -28.9533292 41.11956131 -25 36 C-21.48777291 33.06791756 -18.6486735 32 -14 32 C-14.33 31.01 -14.66 30.02 -15 29 C-15.74426567 22.640768 -15.99629443 17.50630256 -12 12.25 C-11.0272438 11.14213878 -10.03631289 10.04864995 -9 9 C-8.34 9.33 -7.68 9.66 -7 10 C-7.680625 10.804375 -8.36125 11.60875 -9.0625 12.4375 C-11.56098202 16.09317369 -11.05624628 19.01914754 -10.359375 23.2421875 C-10.24078125 23.82226562 -10.1221875 24.40234375 -10 25 C-7.89305668 23.8691408 -7.89305668 23.8691408 -6 22 C-5.66605396 19.42282025 -5.66605396 19.42282025 -6 16.625 C-6.22332506 11.35592432 -6.22332506 11.35592432 -4 7.8125 C-3.34 7.214375 -2.68 6.61625 -2 6 C-2.66 5.67 -3.32 5.34 -4 5 C-2.25 2.5 -2.25 2.5 0 0 Z " fill="#42474A" transform="translate(62,24)"/>
<path d="M0 0 C-3.47871621 1.15957207 -4.34219645 0.77456651 -7.6875 -0.4375 C-8.49574219 -0.72496094 -9.30398437 -1.01242188 -10.13671875 -1.30859375 C-10.75160156 -1.53675781 -11.36648437 -1.76492188 -12 -2 C-11.79375 -0.989375 -11.5875 0.02125 -11.375 1.0625 C-10.9528506 5.49506869 -11.5640515 7.86108962 -13 12 C-11.78763672 12.45439453 -11.78763672 12.45439453 -10.55078125 12.91796875 C0.06326889 17.07908612 0.06326889 17.07908612 4 22 C0.95277749 20.85729156 -1.88757632 19.53425909 -4.75 18 C-13.84744637 13.41707589 -22.7924197 12.92508948 -32.5 15.6875 C-43.91134155 19.45614167 -51.89353289 25.43062802 -57.375 36.25 C-61.92500632 45.83664433 -62.65695616 57.14130441 -59.875 67.5 C-56.86527562 75.7837741 -51.40474653 82.10687524 -45 88 C-48.70928281 88 -49.20988718 87.27561244 -51.8125 84.75 C-60.60595435 75.60027309 -64.43677545 63.99248637 -64.203125 51.4921875 C-63.93749785 48.2331467 -63.2760299 45.16394587 -62.4375 42.0078125 C-61.85806458 39.69110531 -61.85806458 39.69110531 -62 36 C-62.66 36.66 -63.32 37.32 -64 38 C-66.5 38.3125 -66.5 38.3125 -69 38 C-71 35 -71 35 -70.9375 32.5 C-69.69820747 29.19521992 -68.01616211 28.69199338 -65 27 C-64.31731862 25.67479497 -63.6492959 24.34187818 -63 23 C-60.875 21.75 -60.875 21.75 -59 21 C-58.67 21.33 -58.34 21.66 -58 22 C-55.43015167 18.14522751 -54.14185734 14.47959418 -53 10 C-51.35 9.67 -49.7 9.34 -48 9 C-49.32 10.32 -50.64 11.64 -52 13 C-50.02 12.67 -48.04 12.34 -46 12 C-46 9.57202689 -46.50085685 7.37092995 -47 5 C-45.68 5.33 -44.36 5.66 -43 6 C-42.67 5.34 -42.34 4.68 -42 4 C-40.68 4.33 -39.36 4.66 -38 5 C-38 6.65 -38 8.3 -38 10 C-37.34 10 -36.68 10 -36 10 C-36.04125 9.21625 -36.0825 8.4325 -36.125 7.625 C-36 5 -36 5 -34 3 C-32.68 3 -31.36 3 -30 3 C-30 1.68 -30 0.36 -30 -1 C-30.71285156 -0.86722656 -31.42570312 -0.73445312 -32.16015625 -0.59765625 C-37.43010955 0.37405788 -42.6880905 1.2917454 -48 2 C-48 1.34 -48 0.68 -48 0 C-33.2520372 -8.04181368 -15.19948697 -6.16582962 0 0 Z " fill="#656A6D" transform="translate(86,10)"/>
<path d="M0 0 C2.64 0.66 5.28 1.32 8 2 C8 3.65 8 5.3 8 7 C9.485 7.495 9.485 7.495 11 8 C11 9.32 11 10.64 11 12 C13.89906502 11.57050889 14.97372902 11.0254983 17.125 8.9375 C20.74581966 6.4973824 23.185421 6.31935518 27.484375 6.4609375 C31.66868701 7.35757579 34.2019008 9.88688301 37 13 C36.67 13.66 36.34 14.32 36 15 C35.34 14.67 34.68 14.34 34 14 C32.70506805 16.39411837 31.41397828 18.7901788 30.125 21.1875 C29.76019531 21.86103516 29.39539063 22.53457031 29.01953125 23.22851562 C27.12640594 26.7566128 25.38919466 30.23455133 24 34 C20.5930002 34.38937141 19.23631702 34.15388085 16.3125 32.25 C13.25522475 29.27535381 12.0694978 27.52895165 11.875 23.25 C11.91625 22.5075 11.9575 21.765 12 21 C12.66 20.67 13.32 20.34 14 20 C14.33 18.02 14.66 16.04 15 14 C9.72 14 4.44 14 -1 14 C-1 15.98 -1 17.96 -1 20 C-5.74370371 16.8791423 -6.58027498 14.37467329 -8 9 C-8.99 8.67 -9.98 8.34 -11 8 C-10.02125975 13.79517253 -8.91824484 18.41005605 -5 23 C-2.39562767 24.41190564 -2.39562767 24.41190564 0 25 C0.66 24.34 1.32 23.68 2 23 C1.69918829 26.50946994 1.0180963 27.97788231 -1.25 30.75 C-4.02211769 33.0180963 -5.49053006 33.69918829 -9 34 C-11.99353532 29.69513726 -14.458268 25.33632887 -16.75 20.625 C-17.06582031 19.98433594 -17.38164063 19.34367187 -17.70703125 18.68359375 C-18.47507866 17.12422477 -19.23807685 15.5623705 -20 14 C-20.99 14.66 -21.98 15.32 -23 16 C-22.75536626 12.69744449 -21.74684329 11.74081575 -19.375 9.3125 C-15.99006009 6.7173794 -13.3351843 5.92525544 -9 6 C-6.1659776 7.07583276 -3.590649 8.43215268 -1 10 C-1 10.66 -1 11.32 -1 12 C0.32 12 1.64 12 3 12 C3.33 10.35 3.66 8.7 4 7 C4.66 7 5.32 7 6 7 C6 5.68 6 4.36 6 3 C4.02 2.34 2.04 1.68 0 1 C0 0.67 0 0.34 0 0 Z " fill="#494D50" transform="translate(57,55)"/>
<path d="M0 0 C0.495 1.98 0.495 1.98 1 4 C0.01 3.67 -0.98 3.34 -2 3 C-2 2.34 -2 1.68 -2 1 C-3.32 1 -4.64 1 -6 1 C-7.41385911 3.38162009 -7.41385911 3.38162009 -8 6 C-7.34 6.33 -6.68 6.66 -6 7 C-7.2065625 7.8971875 -7.2065625 7.8971875 -8.4375 8.8125 C-12.35490427 12.61924313 -11.90072123 17.84652934 -12 23 C-11.34 23.33 -10.68 23.66 -10 24 C-10.61875 24.28875 -11.2375 24.5775 -11.875 24.875 C-14.13325765 25.93720042 -14.13325765 25.93720042 -16 28 C-17.80622201 24.16177822 -18.51873597 21.23634378 -18 17 C-16 13.625 -16 13.625 -14 11 C-18.8335252 15.39633122 -18.8335252 15.39633122 -20.09765625 21.4765625 C-20.09100795 22.85940867 -20.07908295 24.24223728 -20.0625 25.625 C-20.05798828 26.33140625 -20.05347656 27.0378125 -20.04882812 27.765625 C-20.03703875 29.51045275 -20.01910324 31.255237 -20 33 C-20.67546875 33.24234375 -21.3509375 33.4846875 -22.046875 33.734375 C-28.78469251 36.19836927 -28.78469251 36.19836927 -34 41 C-34.25394531 40.35933594 -34.50789063 39.71867187 -34.76953125 39.05859375 C-35.11371094 38.19363281 -35.45789062 37.32867187 -35.8125 36.4375 C-36.16699219 35.5196875 -36.52148438 34.601875 -36.88671875 33.65625 C-37.89615067 31.06976707 -37.89615067 31.06976707 -39.14453125 29.09375 C-40.125 27.4375 -40.125 27.4375 -41 24 C-39.58651725 20.51383177 -37.42297875 17.84969767 -35 15 C-34.40445313 14.28199219 -33.80890625 13.56398438 -33.1953125 12.82421875 C-24.60748769 3.36335781 -12.52783326 -0.44742262 0 0 Z " fill="#4B4F52" transform="translate(68,23)"/>
<path d="M0 0 C1.8984375 0.25390625 1.8984375 0.25390625 4 1 C4.9765625 2.77734375 4.9765625 2.77734375 5.625 4.9375 C6.49351826 7.75252096 6.86379137 8.86379137 9 11 C9.33 9.35 9.66 7.7 10 6 C15.57710648 4.93204344 20.39436958 5.17377329 26 6 C26 7.98 26 9.96 26 12 C25.01 12.33 24.02 12.66 23 13 C24.16522197 17.78354281 25.05674443 21.16155061 28.8125 24.5 C31.96246705 25.98233743 34.54730021 26.67117145 38 27 C38 27.33 38 27.66 38 28 C34.37 28 30.74 28 27 28 C26.690625 29.299375 26.690625 29.299375 26.375 30.625 C24.62470564 34.92117706 22.40607577 36.89010473 19 40 C15.16129726 38.43608407 12.69027637 36.1265374 10 33 C9.67 31.35 9.34 29.7 9 28 C5.37 28 1.74 28 -2 28 C-2 27.67 -2 27.34 -2 27 C-0.783125 26.773125 0.43375 26.54625 1.6875 26.3125 C5.95690036 25.25842069 8.22035304 23.4745587 11 20 C11 19.34 11 18.68 11 18 C10.2575 17.773125 9.515 17.54625 8.75 17.3125 C4.82896968 15.44109916 3.10910177 12.66365265 0.75 9.125 C-0.32985792 6.06540257 -0.12357258 3.21288704 0 0 Z " fill="#0C1114" transform="translate(46,63)"/>
<path d="M0 0 C0.66 0.33 1.32 0.66 2 1 C1.52260234 4.15082457 0.79390171 6.42012344 -0.625 9.3125 C-2.34744613 13.93178735 -1.78746772 16.19644688 -1 21 C-1.32714425 22.33486536 -1.6616939 23.66791972 -2 25 C-2.96155356 36.7034805 -1.2141373 46.13010825 3 57 C3.34933594 57.92554688 3.69867188 58.85109375 4.05859375 59.8046875 C9.16056695 71.50371763 19.03516808 79.97676545 30 86 C29.505 87.485 29.505 87.485 29 89 C30.32 89.99 31.64 90.98 33 92 C28.74209115 91.43690698 26.03950253 89.95365269 22.5 87.5625 C19.75517094 85.71590854 17.2991109 84.11804798 14.21875 82.90234375 C12 82 12 82 11 80 C10.34 79.67 9.68 79.34 9 79 C8.896875 78.38125 8.79375 77.7625 8.6875 77.125 C7.70016066 74.07322385 5.70328417 73.60909772 3 72 C1.13320454 69.33314934 0.03003612 67.09010837 -1 64 C-2.29135981 60.85440122 -2.29135981 60.85440122 -5 59 C-5.46151823 56.64077044 -5.76520858 54.38713323 -6 52 C-6.12979248 50.72842041 -6.12979248 50.72842041 -6.26220703 49.43115234 C-6.54675493 46.51797234 -6.80705398 43.60336905 -7.0625 40.6875 C-7.15337891 39.70587891 -7.24425781 38.72425781 -7.33789062 37.71289062 C-7.88855636 31.45683106 -8.11649174 25.2793364 -8 19 C-7.34 19 -6.68 19 -6 19 C-5.98582031 18.38253906 -5.97164063 17.76507813 -5.95703125 17.12890625 C-5.57333358 10.31567998 -3.72122179 5.68481853 0 0 Z M-3 8 C-2 10 -2 10 -2 10 Z M-4 10 C-3 12 -3 12 -3 12 Z M-7 22 C-6 25 -6 25 -6 25 Z M-5 53 C-4 56 -4 56 -4 56 Z " fill="#BFC4C7" transform="translate(8,31)"/>
<path d="M0 0 C23.94792101 -1.04794322 23.94792101 -1.04794322 35 5 C35.94875 5.50789062 36.8975 6.01578125 37.875 6.5390625 C44.94002139 10.67995004 50.4537549 16.02064248 56 22 C55.34 22.66 54.68 23.32 54 24 C53.51789063 23.43410156 53.03578125 22.86820313 52.5390625 22.28515625 C51.90742187 21.55167969 51.27578125 20.81820313 50.625 20.0625 C49.99851563 19.33160156 49.37203125 18.60070312 48.7265625 17.84765625 C47.12252286 15.91619094 47.12252286 15.91619094 45 15 C42.87336657 16.74543832 42.87336657 16.74543832 42.6875 18.75 C41.63226748 22.20348824 39.38383239 24.31054807 37 27 C34.88609666 25.95274513 32.78715021 24.8870593 30.703125 23.78125 C25.49884806 21.06309262 20.75512051 19.17233936 15 18 C15.99 17.67 16.98 17.34 18 17 C18.66 13.37 19.32 9.74 20 6 C19.01 5.67 18.02 5.34 17 5 C17.66 5 18.32 5 19 5 C19 4.34 19 3.68 19 3 C21.31 3.33 23.62 3.66 26 4 C20.10015684 2.3355947 14.61433046 1.61399663 8.5 1.375 C7.67757812 1.33632812 6.85515625 1.29765625 6.0078125 1.2578125 C4.0055299 1.16468308 2.00279738 1.08131015 0 1 C0 0.67 0 0.34 0 0 Z " fill="#383D40" transform="translate(55,5)"/>
<path d="M0 0 C3.33333333 0 6.66666667 0 10 0 C9.7834375 1.2684375 9.7834375 1.2684375 9.5625 2.5625 C10.13673732 7.07436466 12.00596427 8.29396702 15.2421875 11.28125 C18.68401596 14.64659338 19.88984524 17.76626665 20.3125 22.5 C20.00287391 25.96781224 19.26184696 28.76651717 18 32 C18.86625 32.0825 19.7325 32.165 20.625 32.25 C25.1335895 33.25190878 28.36330021 34.91876447 31.265625 38.609375 C33.70060959 42.48477301 34.44149911 45.47463412 34 50 C33.773125 49.46375 33.54625 48.9275 33.3125 48.375 C31.3054879 44.74326382 28.77164705 40.88582352 25 39 C19.64956244 38.3153005 15.35130479 38.25948487 10.875 41.5 C9.92625 42.325 8.9775 43.15 8 44 C7.34 43.67 6.68 43.34 6 43 C5.66666667 41.66666667 5.33333333 40.33333333 5 39 C4.34 38.67 3.68 38.34 3 38 C3 36.68 3 35.36 3 34 C3.53109375 33.78085937 4.0621875 33.56171875 4.609375 33.3359375 C9.61290239 31.08982849 12.61333869 29.1710995 15 24 C15.88154704 19.40860918 15.34460215 16.64325734 13.125 12.5 C12.42375 11.675 11.7225 10.85 11 10 C10.34 10 9.68 10 9 10 C9 12.31 9 14.62 9 17 C7.02 15.35 5.04 13.7 3 12 C0.04590299 13.37154504 -2.44008376 14.98863724 -5 17 C-5.36923077 10.6 -5.36923077 10.6 -3.5 7.5625 C-3.005 7.046875 -2.51 6.53125 -2 6 C-2.66 5.67 -3.32 5.34 -4 5 C-2.25 2.5 -2.25 2.5 0 0 Z " fill="#0E1215" transform="translate(62,24)"/>
<path d="M0 0 C3.31002696 1.43753955 5.43889464 3.22483544 7.9375 5.8125 C8.91009766 6.81216797 8.91009766 6.81216797 9.90234375 7.83203125 C10.59457031 8.54746094 11.28679687 9.26289063 12 10 C12.84304687 10.78117187 13.68609375 11.56234375 14.5546875 12.3671875 C17.20233527 15.2178498 18.60506244 17.77004595 20.1875 21.3125 C20.67605469 22.38113281 21.16460937 23.44976562 21.66796875 24.55078125 C27.23687906 38.97115604 26.39213009 54.62098644 21 69 C19.1959411 72.80172413 17.22647732 76.4302147 15 80 C14.01 80 13.02 80 12 80 C11.75 77.75 11.75 77.75 12 75 C12.62003906 74.39414063 13.24007812 73.78828125 13.87890625 73.1640625 C16.26730996 70.72727492 17.08686009 68.83257916 18.1875 65.625 C18.51105469 64.70976563 18.83460937 63.79453125 19.16796875 62.8515625 C23.24717984 48.87116769 22.10019236 32.83963941 15.3984375 19.91015625 C14.00089268 17.54890161 12.55977292 15.25647149 11 13 C10.44570312 13.433125 9.89140625 13.86625 9.3203125 14.3125 C8.23363281 15.1478125 8.23363281 15.1478125 7.125 16 C6.40570313 16.556875 5.68640625 17.11375 4.9453125 17.6875 C3 19 3 19 1 19 C1.33 18.01 1.66 17.02 2 16 C-0.475 15.01 -0.475 15.01 -3 14 C-3 14.99 -3 15.98 -3 17 C-3.33 17.66 -3.66 18.32 -4 19 C-5.32 17.35 -6.64 15.7 -8 14 C-7.21625 13.29875 -6.4325 12.5975 -5.625 11.875 C-2.89683591 8.88701075 -2.1258044 6.81041489 -1 3 C-0.34 2.67 0.32 2.34 1 2 C0.67 1.34 0.34 0.68 0 0 Z " fill="#4C5154" transform="translate(98,18)"/>
<path d="M0 0 C0.66 0.33 1.32 0.66 2 1 C0.58531689 1.96125903 -0.8318364 2.91888325 -2.25 3.875 C-3.03890625 4.40867187 -3.8278125 4.94234375 -4.640625 5.4921875 C-6.71555692 6.81822015 -8.77614972 7.94928175 -11 9 C-11 9.99 -11 10.98 -11 12 C-10.01 12.33 -9.02 12.66 -8 13 C-7.67 12.34 -7.34 11.68 -7 11 C-7 11.66 -7 12.32 -7 13 C-6.01 13.33 -5.02 13.66 -4 14 C-4.33 15.32 -4.66 16.64 -5 18 C-5.66 18 -6.32 18 -7 18 C-7 18.99 -7 19.98 -7 21 C-6.01257813 20.48308594 -5.02515625 19.96617188 -4.0078125 19.43359375 C-2.71375655 18.76781134 -1.41947388 18.10246946 -0.125 17.4375 C0.85146484 16.92413086 0.85146484 16.92413086 1.84765625 16.40039062 C3.53529857 15.53917109 5.26579593 14.76313297 7 14 C7.66 14.33 8.32 14.66 9 15 C-4.681075 24.32453157 -19.72778813 27.34638712 -36.12060547 24.65136719 C-41.93827459 23.30756756 -46.96889562 21.18667047 -52 18 C-51.34 17.67 -50.68 17.34 -50 17 C-48.15234375 17.70703125 -48.15234375 17.70703125 -45.9375 18.8125 C-35.71386633 23.48016213 -26.04541681 23.22826349 -15 23 C-15.99 22.34 -16.98 21.68 -18 21 C-18.99 20.34 -19.98 19.68 -21 19 C-21.33 19.99 -21.66 20.98 -22 22 C-23.32 22 -24.64 22 -26 22 C-26.144375 21.38125 -26.28875 20.7625 -26.4375 20.125 C-26.93152225 17.96741678 -26.93152225 17.96741678 -28 16 C-27.01 16 -26.02 16 -25 16 C-25 14.35 -25 12.7 -25 11 C-25.83402344 10.84144531 -26.66804688 10.68289062 -27.52734375 10.51953125 C-34.80371165 9.01091431 -40.76740369 7.07453971 -47 3 C-46.34 2.67 -45.68 2.34 -45 2 C-43.1953125 2.7421875 -43.1953125 2.7421875 -41.125 3.875 C-33.02716535 8.27800515 -22.99095393 8.28953208 -14 7 C-9.85901234 5.68270228 -6.30857185 3.65962352 -2.58984375 1.43359375 C-1.73519531 0.96050781 -0.88054687 0.48742187 0 0 Z " fill="#676C6F" transform="translate(88,97)"/>
<path d="M0 0 C2.0625 0.4375 2.0625 0.4375 4 1 C3.01 1.33 2.02 1.66 1 2 C0.67 2.66 0.34 3.32 0 4 C1.98 3.67 3.96 3.34 6 3 C6.6875 4.8125 6.6875 4.8125 7 7 C5.9375 8.75 5.9375 8.75 4 10 C0.8125 10.1875 0.8125 10.1875 -2 10 C-1.34 11.65 -0.68 13.3 0 15 C1.65 13.68 3.3 12.36 5 11 C5.66 11.33 6.32 11.66 7 12 C6.41992188 12.51046875 5.83984375 13.0209375 5.2421875 13.546875 C-2.13305993 20.41096667 -8.62595959 29.26007959 -9.203125 39.66015625 C-9.45009643 53.3655076 -7.64579831 63.67866931 1.9453125 74.1171875 C3.59850697 75.78376816 5.27272522 77.41070279 7 79 C3.29071719 79 2.79011282 78.27561244 0.1875 75.75 C-8.60595435 66.60027309 -12.43677545 54.99248637 -12.203125 42.4921875 C-11.93749785 39.2331467 -11.2760299 36.16394587 -10.4375 33.0078125 C-9.85806458 30.69110531 -9.85806458 30.69110531 -10 27 C-10.66 27.66 -11.32 28.32 -12 29 C-14.5 29.3125 -14.5 29.3125 -17 29 C-19 26 -19 26 -18.9375 23.5 C-17.69820747 20.19521992 -16.01616211 19.69199338 -13 18 C-12.31731862 16.67479497 -11.6492959 15.34187818 -11 14 C-8.875 12.75 -8.875 12.75 -7 12 C-6.67 12.33 -6.34 12.66 -6 13 C-3.42474186 9.13711279 -2.20244587 5.4662275 -1 1 C-0.67 0.67 -0.34 0.34 0 0 Z " fill="#7A7F82" transform="translate(34,19)"/>
<path d="M0 0 C1.32 0.33 2.64 0.66 4 1 C4 2.65 4 4.3 4 6 C4.99 5.67 5.98 5.34 7 5 C8.33783393 5.31478446 9.67203709 5.64587656 11 6 C11.33 5.67 11.66 5.34 12 5 C10.68 5 9.36 5 8 5 C8 3.68 8 2.36 8 1 C11 2 11 2 13 3 C13.33 2.01 13.66 1.02 14 0 C14.99 0.33 15.98 0.66 17 1 C17 1.66 17 2.32 17 3 C16.34 3 15.68 3 15 3 C15 3.99 15 4.98 15 6 C18.63 6 22.26 6 26 6 C26 4.68 26 3.36 26 2 C26.66 2 27.32 2 28 2 C28.04640625 2.93714844 28.0928125 3.87429687 28.140625 4.83984375 C28.65936051 8.19815474 28.65936051 8.19815474 31.546875 9.50390625 C32.60390625 9.85324219 33.6609375 10.20257813 34.75 10.5625 C39.72979867 12.38842618 42.69873194 13.87341493 46 18 C42.95277749 16.85729156 40.11242368 15.53425909 37.25 14 C26.71984531 8.69533561 17.15151718 9.25847812 6.1953125 12.85546875 C-2.44314991 15.92646399 -2.44314991 15.92646399 -10 21 C-10.66 20.34 -11.32 19.68 -12 19 C-12 17.68 -12 16.36 -12 15 C-10.329375 14.5978125 -10.329375 14.5978125 -8.625 14.1875 C-4.78159049 13.34190981 -4.78159049 13.34190981 -3 10 C-3.27617533 8.05925139 -3.27617533 8.05925139 -4 6 C-4.34060811 4.33480481 -4.67558396 2.66842534 -5 1 C-3.68 1.33 -2.36 1.66 -1 2 C-0.67 1.34 -0.34 0.68 0 0 Z " fill="#73787B" transform="translate(44,14)"/>
<path d="M0 0 C0.66 0.33 1.32 0.66 2 1 C1.52691406 1.30550781 1.05382812 1.61101563 0.56640625 1.92578125 C-13.59703928 11.72699599 -22.5380214 27.34597344 -26 44 C-27.66224108 57.61155904 -24.63009431 72.5624734 -17 84 C-14.27289112 87.36772501 -11.32236196 90.50624413 -8.29296875 93.6015625 C-6 96 -6 96 -5 98 C-8.15649355 96.6094742 -10.23989506 94.97966857 -12.625 92.5 C-13.21539063 91.8915625 -13.80578125 91.283125 -14.4140625 90.65625 C-14.93742187 90.1096875 -15.46078125 89.563125 -16 89 C-17.13818842 87.86181158 -18.28832163 86.73462174 -19.47265625 85.64453125 C-27.88709216 76.58448645 -30.6092395 61.79325238 -30.40209961 49.83056641 C-29.70574957 33.49510706 -22.48914516 19.29620506 -10.88671875 7.9296875 C-7.52143218 4.90029582 -4.12326184 1.94035852 0 0 Z " fill="#575B5E" transform="translate(35,12)"/>
<path d="M0 0 C0.66 0.33 1.32 0.66 2 1 C1.319375 1.804375 0.63875 2.60875 -0.0625 3.4375 C-2.44432997 7.00179875 -2.25154399 9.76278637 -1.53125 13.890625 C-0.5585843 17.75267998 0.4830294 20.08861846 3.9765625 22.1875 C5.96045292 23.19697074 7.95195261 24.12921501 10 25 C10 26.32 10 27.64 10 29 C9.34 29 8.68 29 8 29 C7.67 30.65 7.34 32.3 7 34 C5.68 34 4.36 34 3 34 C3 33.34 3 32.68 3 32 C-0.99002031 30.18635441 -4.61203098 29.23094574 -9 29 C-12.56029427 30.36934395 -15.80501708 31.81727477 -18 35 C-18.83681715 37.65255246 -19.41870838 40.27240084 -20 43 C-20.33 43 -20.66 43 -21 43 C-21.68377965 36.57247126 -19.9533292 32.11956131 -16 27 C-12.48777291 24.06791756 -9.6486735 23 -5 23 C-5.33 22.01 -5.66 21.02 -6 20 C-6.74426567 13.640768 -6.99629443 8.50630256 -3 3.25 C-2.0272438 2.14213878 -1.03631289 1.04864995 0 0 Z " fill="#0E1215" transform="translate(53,33)"/>
<path d="M0 0 C4.2495226 1.13320603 8.37951699 1.62340509 12.75 2 C11.76 2.33 10.77 2.66 9.75 3 C9.75 4.65 9.75 6.3 9.75 8 C8.76 8.495 8.76 8.495 7.75 9 C8.08 10.32 8.41 11.64 8.75 13 C10.07 13 11.39 13 12.75 13 C13.08 12.34 13.41 11.68 13.75 11 C17.10595828 11.59927826 19.12801226 12.84622436 21.75 15 C18.47978041 16.63510979 14.90266249 16.22628299 11.3125 16.25 C10.53583984 16.270625 9.75917969 16.29125 8.95898438 16.3125 C3.15278858 16.35250824 3.15278858 16.35250824 1.12866211 14.58105469 C0.67370361 14.05930664 0.21874512 13.53755859 -0.25 13 C-2.66460158 11.03813622 -4.26245926 9.99584691 -7.25 9 C-8.28013277 7.35178756 -9.28114628 5.68496298 -10.25 4 C-10.91 3.67 -11.57 3.34 -12.25 3 C-9.33581836 -3.45283078 -6.12278365 -1.88393343 0 0 Z " fill="#323639" transform="translate(53.25,105)"/>
<path d="M0 0 C1.99609375 1.23828125 1.99609375 1.23828125 4 3 C5.01488397 8.78141768 2.39994703 13.48035081 -0.7890625 18.0703125 C-2.58411612 20.9308173 -3.24931617 23.72428876 -4 27 C-6.64 27 -9.28 27 -12 27 C-7.08417923 28.51953709 -7.08417923 28.51953709 -2 29 C-3.24853673 29.79397239 -4.49890043 30.58507217 -5.75 31.375 C-6.79414062 32.03628906 -6.79414062 32.03628906 -7.859375 32.7109375 C-11.65095019 34.99418533 -13.43119598 36 -18 36 C-16.33333333 31 -14.66666667 26 -13 21 C-12.01 21 -11.02 21 -10 21 C-9.75507812 20.17242187 -9.51015625 19.34484375 -9.2578125 18.4921875 C-7.80806511 14.46711244 -5.9276949 10.86772286 -3.875 7.125 C-3.50246094 6.43664062 -3.12992188 5.74828125 -2.74609375 5.0390625 C-1.83500474 3.35705202 -0.91809685 1.67819564 0 0 Z " fill="#2D3235" transform="translate(91,68)"/>
<path d="M0 0 C4.07296876 -0.49873087 7.56775103 -0.88737164 11.15625 1.3359375 C12.86161784 2.82463976 14.46275038 4.33917726 16 6 C15.67 6.66 15.34 7.32 15 8 C14.34 7.67 13.68 7.34 13 7 C11.70506805 9.39411837 10.41397828 11.7901788 9.125 14.1875 C8.76019531 14.86103516 8.39539063 15.53457031 8.01953125 16.22851562 C6.12640594 19.7566128 4.38919466 23.23455133 3 27 C-0.4069998 27.38937141 -1.76368298 27.15388085 -4.6875 25.25 C-7.74477525 22.27535381 -8.9305022 20.52895165 -9.125 16.25 C-9.063125 15.13625 -9.063125 15.13625 -9 14 C-8.01 14.495 -8.01 14.495 -7 15 C-7 16.32 -7 17.64 -7 19 C-1.0722472 15.31162048 1.8209547 12.50511632 3.6875 5.75 C3.93886719 4.85796875 4.19023438 3.9659375 4.44921875 3.046875 C4.63097656 2.37140625 4.81273438 1.6959375 5 1 C3.35 1 1.7 1 0 1 C0 0.67 0 0.34 0 0 Z " fill="#4A4E51" transform="translate(78,62)"/>
<path d="M0 0 C0.3403125 1.5778125 0.3403125 1.5778125 0.6875 3.1875 C1.79360531 7.1597906 3.88629885 9.29599637 7 12 C10.38552696 10.54905987 12.68132949 8.8783496 15 6 C15.80315654 2.85518209 15.80315654 2.85518209 16 0 C17.98 0.66 19.96 1.32 22 2 C21.79503906 2.60328125 21.59007812 3.2065625 21.37890625 3.828125 C21.10949219 4.62734375 20.84007812 5.4265625 20.5625 6.25 C20.29566406 7.03890625 20.02882812 7.8278125 19.75390625 8.640625 C19.0846051 10.7352255 18.53332008 12.86671967 18 15 C11.73 15 5.46 15 -1 15 C-1.99 12.03 -2.98 9.06 -4 6 C-6.97 6 -9.94 6 -13 6 C-13 5.34 -13 4.68 -13 4 C-13.66 3.67 -14.32 3.34 -15 3 C-12.32917117 0.32917117 -10.65738862 0.61442072 -6.9375 0.375 C-5.85339844 0.30023438 -4.76929688 0.22546875 -3.65234375 0.1484375 C-1 0 -1 0 0 0 Z " fill="#43474A" transform="translate(56,90)"/>
<path d="M0 0 C5.56974124 4.50883815 7.4909853 13.24568063 8.22387695 20.09106445 C9.0453453 35.4877795 6.26312602 48.75145462 -2 62 C-2.99 62 -3.98 62 -5 62 C-5.25 59.75 -5.25 59.75 -5 57 C-4.37996094 56.39414063 -3.75992188 55.78828125 -3.12109375 55.1640625 C-0.73269004 52.72727492 0.08686009 50.83257916 1.1875 47.625 C1.51105469 46.70976563 1.83460937 45.79453125 2.16796875 44.8515625 C6.01315516 31.67322409 4.36693954 18.32446433 0.875 5.31640625 C0 2 0 2 0 0 Z " fill="#5E6265" transform="translate(115,36)"/>
<path d="M0 0 C0.70125 0.70125 1.4025 1.4025 2.125 2.125 C2.58390625 2.57875 3.0428125 3.0325 3.515625 3.5 C4.50553378 4.50032888 5.47468455 5.52163137 6.421875 6.5625 C9.9503788 10.3565901 13.14359749 12.02146565 18 14 C18.598125 14.639375 19.19625 15.27875 19.8125 15.9375 C28.21004296 23.85518336 41.13283128 23.43219231 51.89453125 23.28125 C61.5789263 22.92395817 71.10477978 19.68869579 79 14 C80.38576923 12.37667033 81.72641268 10.71275535 83 9 C84.95851344 7.60644236 86.95127113 6.25717453 89 5 C89.495 6.485 89.495 6.485 90 8 C75.87361417 20.51353075 61.47673876 26.80983107 42.37109375 26.27734375 C28.78358959 25.1594842 17.36101142 19.44555411 7.3125 10.375 C6.8071875 9.91996094 6.301875 9.46492188 5.78125 8.99609375 C2.87946228 6.23819633 1.18195269 3.82925025 0 0 Z " fill="#464A4D" transform="translate(17,98)"/>
<path d="M0 0 C3.06492958 2.04328639 3.53890198 2.62985958 4.9375 5.80859375 C5.27523437 6.55560547 5.61296875 7.30261719 5.9609375 8.07226562 C6.30382813 8.85279297 6.64671875 9.63332031 7 10.4375 C7.68128032 11.98062554 8.36857998 13.52111064 9.0625 15.05859375 C9.36285156 15.74236084 9.66320313 16.42612793 9.97265625 17.13061523 C11.07235512 19.13165949 12.31766772 20.47047163 14 22 C12.02 22.33 10.04 22.66 8 23 C8.66 23.66 9.32 24.32 10 25 C8.35 25 6.7 25 5 25 C4.34 22.36 3.68 19.72 3 17 C2.34 17 1.68 17 1 17 C-1.75702189 12.20517932 -2.53328373 8.41390868 -3 3 C-2.34 3 -1.68 3 -1 3 C-0.67 2.01 -0.34 1.02 0 0 Z " fill="#2F3336" transform="translate(36,68)"/>
<path d="M0 0 C3.05229943 3.05229943 3.89086017 6.16406679 4.28125 10.33984375 C3.70997308 15.74317128 0.69919851 20.3761556 -2 25 C-2.33 25 -2.66 25 -3 25 C-6.63299169 16.02838671 -6.63299169 16.02838671 -5.12109375 11.18359375 C-4.23490377 9.48948128 -3.2958968 7.82153053 -2.296875 6.19140625 C-1.05223429 4.08826337 -0.45613493 2.38384801 0 0 Z " fill="#2E3235" transform="translate(100,47)"/>
<path d="M0 0 C0.66 0.66 1.32 1.32 2 2 C1.34 3.98 0.68 5.96 0 8 C-2.64 8 -5.28 8 -8 8 C-3.08417923 9.51953709 -3.08417923 9.51953709 2 10 C0.75146327 10.79397239 -0.49890043 11.58507217 -1.75 12.375 C-2.44609375 12.81585938 -3.1421875 13.25671875 -3.859375 13.7109375 C-7.65095019 15.99418533 -9.43119598 17 -14 17 C-12.96454305 13.89362915 -11.92799456 10.78798399 -10.875 7.6875 C-9.94840233 5.31258056 -9.94840233 5.31258056 -10 4 C-9.195625 3.87625 -8.39125 3.7525 -7.5625 3.625 C-6.716875 3.41875 -5.87125 3.2125 -5 3 C-4.67 2.34 -4.34 1.68 -4 1 C-2.0625 0.25 -2.0625 0.25 0 0 Z " fill="#313538" transform="translate(87,87)"/>
<path d="M0 0 C0.66 0 1.32 0 2 0 C2 0.66 2 1.32 2 2 C2.66 2.33 3.32 2.66 4 3 C4 4.98 4 6.96 4 9 C4.66 9 5.32 9 6 9 C6 9.66 6 10.32 6 11 C8.97 11 11.94 11 15 11 C15.99 13.64 16.98 16.28 18 19 C11.16514429 18.47424187 5.85369797 15.08807169 0.4375 11.125 C-1.64771236 8.04251216 -1.33602683 5.62908978 -1 2 C-0.67 1.34 -0.34 0.68 0 0 Z " fill="#3F4346" transform="translate(37,85)"/>
<path d="M0 0 C0.33 0 0.66 0 1 0 C1.58824847 8.44790163 0.95653476 16.83296736 -4.37890625 23.80078125 C-5.75 25.1875 -5.75 25.1875 -8 27 C-9.61248585 16.42925942 -5.00440785 8.90293093 0 0 Z " fill="#0D1114" transform="translate(103,63)"/>
<path d="M0 0 C4.06012008 0.36910183 7.89279755 1.93408364 11.71875 3.28125 C17.20547632 5.00994459 22.60373351 5.28765015 28.3125 5.5625 C29.14845703 5.60568359 29.98441406 5.64886719 30.84570312 5.69335938 C32.89696935 5.79885307 34.9484648 5.89987315 37 6 C36 8 36 8 34.1953125 8.609375 C24.13354243 10.39972555 13.89391078 7.81065034 4 6 C4 5.34 4 4.68 4 4 C2.02 3.34 0.04 2.68 -2 2 C-1.34 1.34 -0.68 0.68 0 0 Z " fill="#C6CACD" transform="translate(37,118)"/>
<path d="M0 0 C6.55844385 8.33099624 10.1341685 16.33041481 9 27 C3.79142682 22.72152917 0.66707977 15.67079769 0 9 C-0.06626294 5.99777889 -0.05886746 3.00224052 0 0 Z " fill="#0D1114" transform="translate(24,63)"/>
<path d="M0 0 C2.46800047 1.15173355 4.04783565 2.04783565 6 4 C8.0480428 3.9049261 8.0480428 3.9049261 10 3 C10.66 2.01 11.32 1.02 12 0 C12.66 0 13.32 0 14 0 C14.7230444 6.02536998 14.7230444 6.02536998 12.6640625 8.80078125 C11.17261584 10.26772057 9.59067631 11.64129731 8 13 C4.60931932 11.54685114 2.23959074 9.9594592 0 7 C-0.25 3.25 -0.25 3.25 0 0 Z " fill="#070B0E" transform="translate(57,90)"/>
<path d="M0 0 C23.94792101 -1.04794322 23.94792101 -1.04794322 35 5 C35.94875 5.50789062 36.8975 6.01578125 37.875 6.5390625 C44.94002139 10.67995004 50.4537549 16.02064248 56 22 C55.34 22.66 54.68 23.32 54 24 C53.51789063 23.44570313 53.03578125 22.89140625 52.5390625 22.3203125 C51.90742187 21.59585937 51.27578125 20.87140625 50.625 20.125 C49.99851563 19.40570312 49.37203125 18.68640625 48.7265625 17.9453125 C45.96765102 14.83685568 43.80694088 13.44205036 39.953125 11.86328125 C36.82418937 10.4802917 33.94221918 8.74131339 31 7 C31 6.34 31 5.68 31 5 C20.64620701 2.09142564 10.69821629 1.34820233 0 1 C0 0.67 0 0.34 0 0 Z " fill="#3E4245" transform="translate(55,5)"/>
<path d="M0 0 C0.33 0 0.66 0 1 0 C1.04487549 0.55349121 1.08975098 1.10698242 1.13598633 1.67724609 C2.10742755 16.1414592 2.10742755 16.1414592 6 30 C6.30292969 30.78890625 6.60585937 31.5778125 6.91796875 32.390625 C9.91328255 39.267952 14.52330275 44.21070409 19.671875 49.53125 C22 52 22 52 23 54 C19.84350645 52.6094742 17.76010494 50.97966857 15.375 48.5 C14.78460938 47.8915625 14.19421875 47.283125 13.5859375 46.65625 C13.06257813 46.1096875 12.53921875 45.563125 12 45 C10.86827309 43.86827309 9.72333921 42.74849019 8.5390625 41.671875 C3.85547601 36.58412115 1.53178637 29.78027621 1 23 C0.83113281 22.30132812 0.66226562 21.60265625 0.48828125 20.8828125 C-0.20159966 16.8097556 -0.10479648 12.80978018 -0.0625 8.6875 C-0.05798828 7.85154297 -0.05347656 7.01558594 -0.04882812 6.15429688 C-0.03710548 4.10283351 -0.01917203 2.05140727 0 0 Z " fill="#7F8386" transform="translate(7,56)"/>
<path d="M0 0 C3.44150228 1.68398295 6.29746293 3.22239245 9 6 C9.3125 9.75 9.3125 9.75 9 13 C8.67 13 8.34 13 8 13 C8 11.02 8 9.04 8 7 C7.2575 7.845625 6.515 8.69125 5.75 9.5625 C3 12 3 12 1 12.0625 C-1.61381967 10.6739083 -3.76193368 8.92722378 -6 7 C-6 8.98 -6 10.96 -6 13 C-6.33 13 -6.66 13 -7 13 C-7.4375 9.875 -7.4375 9.875 -7 6 C-4.93418366 3.61317961 -2.58391118 1.79950957 0 0 Z " fill="#34393C" transform="translate(63,83)"/>
<path d="M0 0 C3.39068068 1.45314886 5.76040926 3.0405408 8 6 C8.25 9.75 8.25 9.75 8 13 C6.02 11.35 4.04 9.7 2 8 C-0.95409701 9.37154504 -3.44008376 10.98863724 -6 13 C-6.7230444 6.97463002 -6.7230444 6.97463002 -4.6640625 4.19921875 C-3.17261584 2.73227943 -1.59067631 1.35870269 0 0 Z " fill="#0A0F11" transform="translate(63,28)"/>
<path d="M0 0 C-3.69279033 1.23093011 -5.21613069 0.5774189 -8.9375 -0.4375 C-19.26383312 -2.91902191 -27.81825024 -2.34468864 -38.0625 0.265625 C-41.37609836 1.09402459 -44.61185241 1.60602935 -48 2 C-48 1.34 -48 0.68 -48 0 C-33.2520372 -8.04181368 -15.19948697 -6.16582962 0 0 Z " fill="#797D80" transform="translate(86,10)"/>
<path d="M0 0 C1.32 0 2.64 0 4 0 C3.34213283 6.57867167 2.01826401 11.46340978 -3.0625 15.875 C-6 18 -6 18 -8 18 C-8.8125 16.3125 -8.8125 16.3125 -9 14 C-6.6875 11.4375 -6.6875 11.4375 -4 9 C-2.00902154 6.01353231 -1.05875074 3.40312738 0 0 Z " fill="#0E1215" transform="translate(79,63)"/>
<path d="M0 0 C0.66 0 1.32 0 2 0 C1.34 1.32 0.68 2.64 0 4 C0.99 4.33 1.98 4.66 3 5 C3 5.66 3 6.32 3 7 C0.03 7 -2.94 7 -6 7 C-5.67 8.19625 -5.34 9.3925 -5 10.625 C-2.67305162 21.36605882 -3.20379846 32.00499606 -8 42 C-8.99 42.495 -8.99 42.495 -10 43 C-9.71125 41.9378125 -9.4225 40.875625 -9.125 39.78125 C-8.74948724 38.35430151 -8.3745162 36.92721038 -8 35.5 C-7.80921875 34.80390625 -7.6184375 34.1078125 -7.421875 33.390625 C-5.56841781 26.24157584 -5.44724623 20.02121822 -7.4375 12.8125 C-8.4123368 9.21926099 -9.310855 5.65982831 -10 2 C-9.401875 2.33 -8.80375 2.66 -8.1875 3 C-5.94613529 4.20787988 -5.94613529 4.20787988 -3 4 C-1.9739266 2.68662604 -0.97272675 1.35335895 0 0 Z " fill="#9DA2A5" transform="translate(110,42)"/>
<path d="M0 0 C0.99 0.33 1.98 0.66 3 1 C3.99 0.67 4.98 0.34 6 0 C8 2 8 2 8 4 C7.01 4.495 7.01 4.495 6 5 C6.66 5.66 7.32 6.32 8 7 C7.625 9.125 7.625 9.125 7 11 C4.525 10.01 4.525 10.01 2 9 C2 9.66 2 10.32 2 11 C3.32 11.33 4.64 11.66 6 12 C4.68 12.33 3.36 12.66 2 13 C1.54625 12.34 1.0925 11.68 0.625 11 C0.08875 10.34 -0.4475 9.68 -1 9 C-1.66 9 -2.32 9 -3 9 C-2.44271087 5.65626525 -1.64826111 2.96687001 0 0 Z " fill="#3D4245" transform="translate(87,15)"/>
<path d="M0 0 C1.95934686 3.53746333 3.01766413 7.20164235 4.1875 11.0625 C6.14324801 17.24151904 8.73693635 22.37194139 12.44921875 27.73046875 C13.8411102 29.76746857 14.95855951 31.76834182 16 34 C10.92462193 31.92370897 8.68327684 29.77026993 6 25 C5.67 24.01 5.34 23.02 5 22 C3.70864019 18.85440122 3.70864019 18.85440122 1 17 C-0.20116938 11.35450392 -0.10414253 5.75098214 0 0 Z M1 11 C2 14 2 14 2 14 Z " fill="#979B9E" transform="translate(2,73)"/>
<path d="M0 0 C1.4540625 0.7425 1.4540625 0.7425 2.9375 1.5 C2.6075 2.49 2.2775 3.48 1.9375 4.5 C0.7 4.2525 0.7 4.2525 -0.5625 4 C-6.1619897 3.2000729 -11.52850846 3.11650211 -17.0625 4.5 C-17.3925 3.18 -17.7225 1.86 -18.0625 0.5 C-12.26931012 -2.49003349 -5.95363675 -2.54810822 0 0 Z " fill="#0B1012" transform="translate(72.0625,47.5)"/>
<path d="M0 0 C0.66 0.33 1.32 0.66 2 1 C1.52260234 4.15082457 0.79390171 6.42012344 -0.625 9.3125 C-2.33366057 13.89481699 -1.91324459 16.26773258 -1 21 C-1.66 20.34 -2.32 19.68 -3 19 C-4.64292546 20.64292546 -4.34107718 22.64590038 -4.53515625 24.91015625 C-4.66567383 26.39418945 -4.66567383 26.39418945 -4.79882812 27.90820312 C-4.88583984 28.94912109 -4.97285156 29.99003906 -5.0625 31.0625 C-5.15337891 32.10728516 -5.24425781 33.15207031 -5.33789062 34.22851562 C-5.56260908 36.8186915 -5.7831231 39.40915767 -6 42 C-6.33 42 -6.66 42 -7 42 C-7.16888623 39.29178874 -7.33517601 36.58345903 -7.5 33.875 C-7.54769531 33.11445312 -7.59539063 32.35390625 -7.64453125 31.5703125 C-7.89784772 27.3724967 -8.05377622 23.20798902 -8 19 C-7.34 19 -6.68 19 -6 19 C-5.98582031 18.38253906 -5.97164063 17.76507813 -5.95703125 17.12890625 C-5.57333358 10.31567998 -3.72122179 5.68481853 0 0 Z M-3 8 C-2 10 -2 10 -2 10 Z M-4 10 C-3 12 -3 12 -3 12 Z M-7 22 C-6 25 -6 25 -6 25 Z " fill="#ACB0B3" transform="translate(8,31)"/>
<path d="M0 0 C2.72426311 2.35277269 3.8141763 4.62496331 5 8 C5.99 6.68 6.98 5.36 8 4 C8 5.98 8 7.96 8 10 C8.33 10 8.66 10 9 10 C9.12117188 10.66386719 9.24234375 11.32773438 9.3671875 12.01171875 C10.22547708 16.53424459 11.03971311 20.79938524 13 25 C12.34 25 11.68 25 11 25 C11 26.98 11 28.96 11 31 C10.01 30.34 9.02 29.68 8 29 C7.734375 26.671875 7.734375 26.671875 7.75 23.75 C7.38735143 16.77534022 4.80584332 11.90486215 1.49609375 5.93359375 C0 3 0 3 0 0 Z " fill="#414548" transform="translate(25,62)"/>
<path d="M0 0 C2.9808845 0.44161252 4.1414119 1.12020011 6.5 3.125 C7.325 3.74375 8.15 4.3625 9 5 C9.62390625 4.82339844 10.2478125 4.64679688 10.890625 4.46484375 C13 4 13 4 15.140625 4.99609375 C16.18476562 5.70958984 16.18476562 5.70958984 17.25 6.4375 C17.95640625 6.91058594 18.6628125 7.38367188 19.390625 7.87109375 C19.92171875 8.24363281 20.4528125 8.61617187 21 9 C20.67 9.99 20.34 10.98 20 12 C21.32 12.99 22.64 13.98 24 15 C19.74209115 14.43690698 17.03950253 12.95365269 13.5 10.5625 C10.75517094 8.71590854 8.2991109 7.11804798 5.21875 5.90234375 C3 5 3 5 2 3 C1.34 2.67 0.68 2.34 0 2 C0 1.34 0 0.68 0 0 Z " fill="#B4B9BC" transform="translate(17,108)"/>
<path d="M0 0 C0.66 0.33 1.32 0.66 2 1 C1.34 4.3 0.68 7.6 0 11 C-4 10 -4 10 -5.625 7.5 C-6.305625 6.2625 -6.305625 6.2625 -7 5 C-7.66 4.67 -8.32 4.34 -9 4 C-6.74770562 -0.98722328 -5.25381986 -1.31345496 0 0 Z " fill="#323639" transform="translate(50,104)"/>
<path d="M0 0 C3.45381777 5.18072666 3.18267072 9.95374639 3.1875 16 C3.19974609 16.80695313 3.21199219 17.61390625 3.22460938 18.4453125 C3.22654297 19.22648437 3.22847656 20.00765625 3.23046875 20.8125 C3.23457764 21.52019531 3.23868652 22.22789063 3.24291992 22.95703125 C2.9621464 25.31835067 2.16578114 26.94392823 1 29 C-1.19173639 24.61652721 -0.45148676 18.76269911 -0.625 13.9375 C-0.6765625 12.71482422 -0.728125 11.49214844 -0.78125 10.23242188 C-0.82507813 9.07162109 -0.86890625 7.91082031 -0.9140625 6.71484375 C-0.9548291 5.64355225 -0.9955957 4.57226074 -1.03759766 3.46850586 C-1 1 -1 1 0 0 Z " fill="#C6CBCE" transform="translate(123,48)"/>
<path d="M0 0 C0.66 0.33 1.32 0.66 2 1 C2 1.33 2 1.66 2 2 C4.31 2.33 6.62 2.66 9 3 C5.66666667 5.66666667 2.33333333 8.33333333 -1 11 C-1.66 10.67 -2.32 10.34 -3 10 C-0.69 8.02 1.62 6.04 4 4 C2.7625 4.825 1.525 5.65 0.25 6.5 C-3.01426496 8.67617664 -3.86021808 9 -8 9 C-10.20067421 9.93283296 -10.20067421 9.93283296 -12 11 C-12 10.01 -12 9.02 -12 8 C-11.42765625 7.73445313 -10.8553125 7.46890625 -10.265625 7.1953125 C-7.8923988 5.94323109 -5.87786714 4.5063648 -3.75 2.875 C-2.69039062 2.06675781 -2.69039062 2.06675781 -1.609375 1.2421875 C-1.07828125 0.83226562 -0.5471875 0.42234375 0 0 Z " fill="#ABAFB2" transform="translate(31,9)"/>
<path d="M0 0 C3.81936528 1.55603771 6.26044438 3.95604931 9 7 C9 7.66 9 8.32 9 9 C4.05 9 -0.9 9 -6 9 C-4.86634892 4.46539569 -3.35806626 3.09975347 0 0 Z " fill="#0B1012" transform="translate(63,37)"/>
<path d="M0 0 C0.66 0.99 1.32 1.98 2 3 C-9.071552 12.80747717 -20.71890686 20.53617871 -36 20 C-36 19.67 -36 19.34 -36 19 C-34.97261719 18.78085938 -33.94523437 18.56171875 -32.88671875 18.3359375 C-22.3235602 15.96599808 -11.46126284 13.44338415 -5 4 C-3.36643049 2.62631655 -1.7074998 1.28062485 0 0 Z " fill="#393D40" transform="translate(105,103)"/>
<path d="M0 0 C2 2 2 2 2.16699219 4.3984375 C2.10753418 5.87183594 2.10753418 5.87183594 2.046875 7.375 C2.00433594 8.44234375 1.96179688 9.5096875 1.91796875 10.609375 C1.86253906 11.72828125 1.80710937 12.8471875 1.75 14 C1.71003906 15.11890625 1.67007812 16.2378125 1.62890625 17.390625 C1.25560999 25.74439001 1.25560999 25.74439001 -1 28 C-3.85460571 19.43618287 -2.25867401 8.5708612 0 0 Z " fill="#C7CBCE" transform="translate(4,48)"/>
<path d="M0 0 C3 0.125 3 0.125 4 1.125 C4.1875 4.0625 4.1875 4.0625 4 7.125 C2 9.125 2 9.125 -0.5 9.4375 C-1.7375 9.2828125 -1.7375 9.2828125 -3 9.125 C-5 6.125 -5 6.125 -4.6875 3.5 C-3.68897505 0.05055016 -3.71397355 0.1547489 0 0 Z " fill="#B9BEC1" transform="translate(20,38.875)"/>
<path d="M0 0 C3.33333333 0 6.66666667 0 10 0 C10 3 10 6 10 9 C6.29121726 8.3605547 6.29121726 8.3605547 4.6875 6.375 C2.88334311 4.5797574 2.88334311 4.5797574 -0.6875 5.3125 C-1.780625 5.539375 -2.87375 5.76625 -4 6 C-2.25 3 -2.25 3 0 0 Z " fill="#212528" transform="translate(62,24)"/>
<path d="M0 0 C0.99 0.33 1.98 0.66 3 1 C2.25 5.75 2.25 5.75 0 8 C0.66 8.66 1.32 9.32 2 10 C0.35 10.33 -1.3 10.66 -3 11 C-5.0625 8.75 -5.0625 8.75 -7 6 C-6.75 3.6875 -6.75 3.6875 -6 2 C-1.125 1 -1.125 1 0 1 C0 0.67 0 0.34 0 0 Z " fill="#3E4346" transform="translate(106,36)"/>
<path d="M0 0 C0.66 0.66 1.32 1.32 2 2 C0.12855305 2.82065069 -1.74734336 3.6311584 -3.625 4.4375 C-4.66914062 4.88996094 -5.71328125 5.34242187 -6.7890625 5.80859375 C-9.88685251 6.95801705 -12.73210054 7.57311223 -16 8 C-15.6334837 5.50768915 -15.41321026 4.32653689 -13.3984375 2.734375 C-8.77462065 0.48495059 -5.25940868 -0.63112904 0 0 Z " fill="#C0C4C7" transform="translate(48,4)"/>
<path d="M0 0 C5.03971921 -0.11720277 9.22426535 0.40808845 14 2 C2.175322 6.43425425 -11.86645356 6.20135916 -24 3 C-24.66 2.34 -25.32 1.68 -26 1 C-25.03320312 1.144375 -24.06640625 1.28875 -23.0703125 1.4375 C-9.99773969 3.53632304 -9.99773969 3.53632304 3 2 C2.01 1.34 1.02 0.68 0 0 Z " fill="#B9BDC0" transform="translate(70,123)"/>
<path d="M0 0 C2.64 0.66 5.28 1.32 8 2 C8 3.65 8 5.3 8 7 C8.66 7.33 9.32 7.66 10 8 C9.67 9.98 9.34 11.96 9 14 C6.03 13.67 3.06 13.34 0 13 C0.99 12.67 1.98 12.34 3 12 C3.33 10.35 3.66 8.7 4 7 C4.66 7 5.32 7 6 7 C6 5.68 6 4.36 6 3 C4.02 2.34 2.04 1.68 0 1 C0 0.67 0 0.34 0 0 Z " fill="#43474A" transform="translate(57,55)"/>
<path d="M0 0 C0.66 0 1.32 0 2 0 C2 0.66 2 1.32 2 2 C2.99 2.33 3.98 2.66 5 3 C4.67 4.32 4.34 5.64 4 7 C-0.75 8 -0.75 8 -3 8 C-2.67 9.32 -2.34 10.64 -2 12 C-3.65 10.35 -5.3 8.7 -7 7 C-4.66666667 4.66666667 -2.33333333 2.33333333 0 0 Z " fill="#8E9396" transform="translate(97,25)"/>
<path d="M0 0 C1.98 0.66 3.96 1.32 6 2 C5.79503906 2.60328125 5.59007813 3.2065625 5.37890625 3.828125 C4.97478516 5.02695313 4.97478516 5.02695313 4.5625 6.25 C4.29566406 7.03890625 4.02882813 7.8278125 3.75390625 8.640625 C3.08045292 10.74821988 2.50849405 12.84753973 2 15 C1.01 15 0.02 15 -1 15 C-2 12 -2 12 -1.0625 9.8125 C-0.5365625 8.9153125 -0.5365625 8.9153125 0 8 C-0.66 7.67 -1.32 7.34 -2 7 C-1.34 4.69 -0.68 2.38 0 0 Z " fill="#4B5053" transform="translate(72,90)"/>
<path d="M0 0 C1.8871875 0.0309375 1.8871875 0.0309375 3.8125 0.0625 C4.1425 1.3825 4.4725 2.7025 4.8125 4.0625 C3.8225 3.7325 2.8325 3.4025 1.8125 3.0625 C1.8125 2.4025 1.8125 1.7425 1.8125 1.0625 C0.4925 1.0625 -0.8275 1.0625 -2.1875 1.0625 C-3.60135911 3.44412009 -3.60135911 3.44412009 -4.1875 6.0625 C-3.5275 6.3925 -2.8675 6.7225 -2.1875 7.0625 C-3.375 8.5625 -3.375 8.5625 -5.1875 10.0625 C-7.875 10.25 -7.875 10.25 -10.1875 10.0625 C-10.1875 7.72916667 -10.1875 5.39583333 -10.1875 3.0625 C-9.5275 3.0625 -8.8675 3.0625 -8.1875 3.0625 C-7.8575 2.4025 -7.5275 1.7425 -7.1875 1.0625 C-4.43671116 0.14557039 -2.82801087 -0.04636083 0 0 Z " fill="#3B3F42" transform="translate(64.1875,22.9375)"/>
<path d="M0 0 C0.66 0.33 1.32 0.66 2 1 C2 3.64 2 6.28 2 9 C1.34 7.68 0.68 6.36 0 5 C-2.31 9.62 -4.62 14.24 -7 19 C-9 17 -9 17 -9.1875 14.0625 C-9 11 -9 11 -8 8 C-8.87914688 5.3430809 -8.87914688 5.3430809 -10 3 C-9.34 3 -8.68 3 -8 3 C-7.01 5.31 -6.02 7.62 -5 10 C-3.35 6.7 -1.7 3.4 0 0 Z " fill="#404447" transform="translate(103,60)"/>
<path d="M0 0 C2.375 1 2.375 1 4 2 C4 2.66 4 3.32 4 4 C-0.42243499 6.56786548 -3.51143471 5.71809676 -8.20703125 4.5078125 C-8.79871094 4.34023438 -9.39039063 4.17265625 -10 4 C-10 3.34 -10 2.68 -10 2 C-6.58794404 -0.09972674 -3.9699753 -0.33083127 0 0 Z " fill="#0E1215" transform="translate(67,51)"/>
<path d="M0 0 C0.66 0 1.32 0 2 0 C1.33392561 4.40958108 -0.26624729 8.26572186 -2.0625 12.3125 C-2.34416016 12.95767578 -2.62582031 13.60285156 -2.91601562 14.26757812 C-3.6062743 15.84698358 -4.30253198 17.42376493 -5 19 C-5.66 18.34 -6.32 17.68 -7 17 C-6.62117821 13.07648861 -5.14975199 9.79888509 -3.5 6.25 C-3.0565625 5.28578125 -2.613125 4.3215625 -2.15625 3.328125 C-1 1 -1 1 0 0 Z " fill="#C6CACD" transform="translate(12,30)"/>
<path d="M0 0 C1 3 1 3 0 6 C1.32 6.33 2.64 6.66 4 7 C3.67 14.26 3.34 21.52 3 29 C2.67 29 2.34 29 2 29 C1.96261719 28.15179688 1.92523438 27.30359375 1.88671875 26.4296875 C1.39438106 17.64483847 0.06876783 9.56131594 -2 1 C-1.34 0.67 -0.68 0.34 0 0 Z M1 7 C2 9 2 9 2 9 Z M2 11 C3 14 3 14 3 14 Z M-3 8 C-2.01 8.495 -2.01 8.495 -1 9 C-1.66 9.66 -2.32 10.32 -3 11 C-3 10.01 -3 9.02 -3 8 Z " fill="#AEB2B5" transform="translate(124,40)"/>
<path d="M0 0 C-0.639375 0.45375 -1.27875 0.9075 -1.9375 1.375 C-4.09702406 2.83921726 -4.09702406 2.83921726 -5 5 C-5.825 5.268125 -6.65 5.53625 -7.5 5.8125 C-8.7375 6.4003125 -8.7375 6.4003125 -10 7 C-10.89386164 9.54775306 -10.89386164 9.54775306 -11 12 C-11.66 12 -12.32 12 -13 12 C-13.90282145 8.47078888 -14.25033181 6.59289113 -12.8125 3.1875 C-11 1 -11 1 -9.25 0.1875 C-6.15933689 -0.07005526 -3.09925474 -0.05960105 0 0 Z " fill="#2F3336" transform="translate(61,8)"/>
<path d="M0 0 C2.64 0 5.28 0 8 0 C8.99 2.31 9.98 4.62 11 7 C6.65840504 6.49516338 3.50591348 5.68099266 0 3 C0 2.01 0 1.02 0 0 Z " fill="#0F1215" transform="translate(44,97)"/>
<path d="M0 0 C2.05078125 0.03255208 4.1015625 0.06510417 6.15234375 0.09765625 C6.02734375 1.91015625 6.02734375 1.91015625 5.15234375 4.09765625 C1.4734975 6.38671614 -0.46317581 7.09765625 -4.84765625 7.09765625 C-2.62675581 0.13883487 -2.62675581 0.13883487 0 0 Z " fill="#0D1114" transform="translate(77.84765625,96.90234375)"/>
<path d="M0 0 C-0.99 0.66 -1.98 1.32 -3 2 C2.94 2.33 8.88 2.66 15 3 C15 3.33 15 3.66 15 4 C11.29257072 4.22716871 7.58416438 4.4283696 3.875 4.625 C2.82828125 4.68945312 1.7815625 4.75390625 0.703125 4.8203125 C-4.64580711 5.09114451 -9.0026831 5.26521977 -14 3 C-9.25294723 -0.16470185 -5.68228705 -0.10927475 0 0 Z " fill="#A9ADB0" transform="translate(58,1)"/>
<path d="M0 0 C1.32 0.33 2.64 0.66 4 1 C4 2.98 4 4.96 4 7 C4.66 7.33 5.32 7.66 6 8 C4.68 7.67 3.36 7.34 2 7 C2 6.01 2 5.02 2 4 C1.01 4 0.02 4 -1 4 C-0.34 5.98 0.32 7.96 1 10 C-2 9 -2 9 -3.6875 6.625 C-5 4 -5 4 -5 1 C-3.68 1.33 -2.36 1.66 -1 2 C-0.67 1.34 -0.34 0.68 0 0 Z " fill="#8B9093" transform="translate(44,14)"/>
<path d="M0 0 C3.36179774 1.44077046 5.59156268 3.24750021 8 6 C8 6.66 8 7.32 8 8 C6.35 8.66 4.7 9.32 3 10 C1.5 8.9375 1.5 8.9375 0 7 C-0.1875 3.3125 -0.1875 3.3125 0 0 Z " fill="#0D1114" transform="translate(57,90)"/>
<path d="M0 0 C0 0.33 0 0.66 0 1 C3.3 1 6.6 1 10 1 C10.33 1.99 10.66 2.98 11 4 C7.37435813 3.89045592 3.74978569 3.7597504 0.125 3.625 C-0.90753906 3.5940625 -1.94007812 3.563125 -3.00390625 3.53125 C-3.99003906 3.49257812 -4.97617187 3.45390625 -5.9921875 3.4140625 C-6.90339355 3.3826416 -7.81459961 3.3512207 -8.75341797 3.31884766 C-11 3 -11 3 -13 1 C-8.59085217 -0.10228696 -4.51617599 -0.07654536 0 0 Z " fill="#CCD0D3" transform="translate(66,1)"/>
<path d="M0 0 C1.32 0.33 2.64 0.66 4 1 C4 1.66 4 2.32 4 3 C3.34 3 2.68 3 2 3 C2 3.99 2 4.98 2 6 C5.63 6 9.26 6 13 6 C13 4.68 13 3.36 13 2 C13.66 2 14.32 2 15 2 C15.33 3.98 15.66 5.96 16 8 C10.72 8 5.44 8 0 8 C0 5.36 0 2.72 0 0 Z " fill="#2C3134" transform="translate(57,14)"/>
<path d="M0 0 C0.66 0.66 1.32 1.32 2 2 C3.67381019 1.70462173 5.33911955 1.36106097 7 1 C11.79881009 0.64057495 15.60822604 0.80411302 20 3 C19.67 4.32 19.34 5.64 19 7 C16.69 7.66 14.38 8.32 12 9 C12.33 8.34 12.66 7.68 13 7 C15.5625 6.375 15.5625 6.375 18 6 C18 5.34 18 4.68 18 4 C16.41773035 3.80372609 14.83410729 3.61834462 13.25 3.4375 C12.36828125 3.33308594 11.4865625 3.22867188 10.578125 3.12109375 C8.11567549 3.00543324 6.33461936 3.26361305 4 4 C4 4.66 4 5.32 4 6 C2.68 5.34 1.36 4.68 0 4 C0 2.68 0 1.36 0 0 Z " fill="#34383B" transform="translate(53,49)"/>
<path d="M0 0 C0.66 0 1.32 0 2 0 C1.62669176 2.72574271 1.20805399 3.80822085 -0.84765625 5.703125 C-1.94400391 6.46882813 -1.94400391 6.46882813 -3.0625 7.25 C-3.79597656 7.77078125 -4.52945313 8.2915625 -5.28515625 8.828125 C-5.85105469 9.21484375 -6.41695312 9.6015625 -7 10 C-7.66 9.34 -8.32 8.68 -9 8 C-9 6.68 -9 5.36 -9 4 C-7.88625 3.71125 -6.7725 3.4225 -5.625 3.125 C-1.99708908 2.30758671 -1.99708908 2.30758671 0 0 Z " fill="#363B3E" transform="translate(41,25)"/>
<path d="M0 0 C1.9375 0.75 1.9375 0.75 4 2 C4.875 4 4.875 4 5 6 C4.34 6.66 3.68 7.32 3 8 C1 7.875 1 7.875 -1 7 C-2.25 4.9375 -2.25 4.9375 -3 3 C-2.01 2.01 -1.02 1.02 0 0 Z " fill="#090D10" transform="translate(63,85)"/>
<path d="M0 0 C1.0828125 1.0209375 1.0828125 1.0209375 2.1875 2.0625 C4.7827687 4.25623775 4.7827687 4.25623775 7.5625 3.9375 C10.11718977 2.95492701 11.92313706 1.76917954 14 0 C14 1.98 14 3.96 14 6 C9.38 6 4.76 6 0 6 C0 4.02 0 2.04 0 0 Z " fill="#14181B" transform="translate(57,99)"/>
<path d="M0 0 C0.66 0 1.32 0 2 0 C2.30292969 0.65226562 2.60585937 1.30453125 2.91796875 1.9765625 C5.46004706 7.27972895 8.01380014 11.67212586 12 16 C11.67 16.66 11.34 17.32 11 18 C6.7873014 15.47238084 4.08504322 13.49930379 2 9 C1.375 6.4375 1.375 6.4375 1 4 C0.67516582 2.66457061 0.3449145 1.33038449 0 0 Z " fill="#A4A8AB" transform="translate(6,89)"/>
<path d="M0 0 C1.67542976 0.28604898 3.34385343 0.61781233 5 1 C5 2.65 5 4.3 5 6 C2.625 6.625 2.625 6.625 0 7 C-0.66 6.34 -1.32 5.68 -2 5 C-1.46428571 1.46428571 -1.46428571 1.46428571 0 0 Z " fill="#989C9F" transform="translate(78,15)"/>
<path d="M0 0 C0.50789063 0.34933594 1.01578125 0.69867188 1.5390625 1.05859375 C5.69405656 3.80524712 8.90884805 5.6181636 14 6 C14 6.33 14 6.66 14 7 C4.26995516 7.76681614 4.26995516 7.76681614 1.15625 5.88671875 C-0.1875 4.5 -0.1875 4.5 -2 2 C-1.34 1.34 -0.68 0.68 0 0 Z " fill="#0B1013" transform="translate(70,84)"/>
<path d="M0 0 C2.125 0.375 2.125 0.375 4 1 C4.33 2.32 4.66 3.64 5 5 C4.01 5.495 4.01 5.495 3 6 C0.875 5.0625 0.875 5.0625 -1 4 C-1 4.66 -1 5.32 -1 6 C0.98 6.495 0.98 6.495 3 7 C1.0625 7.5625 1.0625 7.5625 -1 8 C-2 7 -2 7 -2.1875 4.5625 C-2 2 -2 2 0 0 Z " fill="#A5AAAD" transform="translate(90,20)"/>
<path d="M0 0 C2.125 0.375 2.125 0.375 4 1 C3.01 1.33 2.02 1.66 1 2 C0.67 2.66 0.34 3.32 0 4 C1.98 3.67 3.96 3.34 6 3 C6.625 4.875 6.625 4.875 7 7 C6.34 7.66 5.68 8.32 5 9 C2.875 8.625 2.875 8.625 1 8 C1.99 7.67 2.98 7.34 4 7 C4.33 6.34 4.66 5.68 5 5 C3.02 5.33 1.04 5.66 -1 6 C-1.625 4.125 -1.625 4.125 -2 2 C-1.34 1.34 -0.68 0.68 0 0 Z " fill="#BEC3C6" transform="translate(34,19)"/>
<path d="M0 0 C0.66 0.33 1.32 0.66 2 1 C1.33501617 5.38889325 -0.18757677 8.9811485 -2 13 C-2.99 12.67 -3.98 12.34 -5 12 C-4.42365861 7.24518354 -2.44931479 4.02951788 0 0 Z M-3 8 C-2 10 -2 10 -2 10 Z " fill="#A0A4A7" transform="translate(8,31)"/>
<path d="M0 0 C0.99 0.33 1.98 0.66 3 1 C2.75 3.375 2.75 3.375 2 6 C-0.0625 7.3125 -0.0625 7.3125 -2 8 C-4 5 -4 5 -4 1 C-2.68 1.33 -1.36 1.66 0 2 C0 1.34 0 0.68 0 0 Z " fill="#ACB1B4" transform="translate(106,36)"/>
<path d="M0 0 C0.33 0.99 0.66 1.98 1 3 C1.99 3.33 2.98 3.66 4 4 C3.67 5.65 3.34 7.3 3 9 C2.38125 8.814375 1.7625 8.62875 1.125 8.4375 C-1.04160178 7.76313824 -1.04160178 7.76313824 -3 9 C-3.33 7.02 -3.66 5.04 -4 3 C-3.01 3 -2.02 3 -1 3 C-0.67 2.01 -0.34 1.02 0 0 Z " fill="#BEC2C5" transform="translate(64,110)"/>
<path d="M0 0 C0.99 0.33 1.98 0.66 3 1 C2.06725891 2.12894876 1.12859878 3.25300876 0.1875 4.375 C-0.33457031 5.00148438 -0.85664063 5.62796875 -1.39453125 6.2734375 C-3 8 -3 8 -6 10 C-5.73334769 6.08909938 -5.40818918 4.418931 -2.625 1.5625 C-1.75875 1.046875 -0.8925 0.53125 0 0 Z " fill="#C5CACD" transform="translate(24,16)"/>
<path d="M0 0 C0.66 0 1.32 0 2 0 C2 0.66 2 1.32 2 2 C2.66 2.33 3.32 2.66 4 3 C3.67 3.99 3.34 4.98 3 6 C4.32 6.33 5.64 6.66 7 7 C6.195625 7.2475 5.39125 7.495 4.5625 7.75 C1.828919 8.72238859 1.828919 8.72238859 1.1875 11.125 C1.125625 11.74375 1.06375 12.3625 1 13 C0.34 12.67 -0.32 12.34 -1 12 C-0.34 9.03 0.32 6.06 1 3 C0.01 2.67 -0.98 2.34 -2 2 C-1.34 2 -0.68 2 0 2 C0 1.34 0 0.68 0 0 Z " fill="#454A4D" transform="translate(74,8)"/>
<path d="M0 0 C1.3340394 4.00211819 0.40012984 6.07963644 -1 10 C-2.5 11.9375 -2.5 11.9375 -4 13 C-4.66 13 -5.32 13 -6 13 C-6.25 10.75 -6.25 10.75 -6 8 C-4.125 5.9375 -4.125 5.9375 -2 4 C-0.76487921 1.86690808 -0.76487921 1.86690808 0 0 Z " fill="#6D7174" transform="translate(116,85)"/>
<path d="M0 0 C0.33 0.66 0.66 1.32 1 2 C3.02463255 2.65213292 3.02463255 2.65213292 5 3 C2.38058783 4.74627478 0.96175123 5.38722388 -2 6 C-2 5.34 -2 4.68 -2 4 C-4.31 4 -6.62 4 -9 4 C-8.67 3.34 -8.34 2.68 -8 2 C-5.69 2 -3.38 2 -1 2 C-0.67 1.34 -0.34 0.68 0 0 Z " fill="#505558" transform="translate(87,92)"/>
<path d="M0 0 C0.99 0 1.98 0 3 0 C3.33 2.97 3.66 5.94 4 9 C1.525 8.01 1.525 8.01 -1 7 C-0.67 4.69 -0.34 2.38 0 0 Z " fill="#2A2E31" transform="translate(56,69)"/>
<path d="M0 0 C4.75609756 4.26829268 4.75609756 4.26829268 5.875 7.625 C6 10 6 10 5 13 C3.96679519 11.40377344 2.94877571 9.79770894 1.9375 8.1875 C1.36902344 7.29417969 0.80054687 6.40085937 0.21484375 5.48046875 C-1 3 -1 3 0 0 Z " fill="#6B7073" transform="translate(110,28)"/>
<path d="M0 0 C1.11375 0.556875 1.11375 0.556875 2.25 1.125 C2.25 2.115 2.25 3.105 2.25 4.125 C1.59 4.125 0.93 4.125 0.25 4.125 C0.25 5.445 0.25 6.765 0.25 8.125 C-0.41 8.125 -1.07 8.125 -1.75 8.125 C-2.018125 7.34125 -2.28625 6.5575 -2.5625 5.75 C-3.59814432 2.84385077 -3.59814432 2.84385077 -6.75 1.125 C-4.02098495 -0.69434337 -3.21400584 -1.02263822 0 0 Z " fill="#2E3336" transform="translate(96.75,17.875)"/>
<path d="M0 0 C1.32 0.66 2.64 1.32 4 2 C4 4.66666667 4 7.33333333 4 10 C3.34 10.66 2.68 11.32 2 12 C1.34 11.67 0.68 11.34 0 11 C0.33 9.02 0.66 7.04 1 5 C0.34 5 -0.32 5 -1 5 C-0.67 3.35 -0.34 1.7 0 0 Z " fill="#B1B5B8" transform="translate(120,81)"/>
<path d="M0 0 C1.9375 0.8125 1.9375 0.8125 4 2 C4.33 2.99 4.66 3.98 5 5 C2.525 4.01 2.525 4.01 0 3 C-0.33 3.66 -0.66 4.32 -1 5 C0.32 5.66 1.64 6.32 3 7 C2.34 7.66 1.68 8.32 1 9 C-0.32 7.68 -1.64 6.36 -3 5 C-1.125 1.125 -1.125 1.125 0 0 Z " fill="#B4B9BC" transform="translate(25,31)"/>
<path d="M0 0 C-0.33 1.65 -0.66 3.3 -1 5 C-3.97 5.66 -6.94 6.32 -10 7 C-7.54901961 1.24019608 -7.54901961 1.24019608 -5 0.125 C-3.3360593 0.02100371 -1.66718742 0 0 0 Z " fill="#5C6164" transform="translate(39,24)"/>
<path d="M0 0 C0.66 0.99 1.32 1.98 2 3 C-2.296875 7.00390625 -2.296875 7.00390625 -4 8 C-5.32 7.67 -6.64 7.34 -8 7 C-5.36 4.69 -2.72 2.38 0 0 Z " fill="#6C7073" transform="translate(105,103)"/>
<path d="M0 0 C2.8290723 2.8290723 3.37611108 3.38144425 4 7 C3.34 7 2.68 7 2 7 C2 8.98 2 10.96 2 13 C1.34 12.67 0.68 12.34 0 12 C0 8.04 0 4.08 0 0 Z " fill="#4C5053" transform="translate(34,80)"/>
<path d="M0 0 C0.66 0 1.32 0 2 0 C1.34 1.32 0.68 2.64 0 4 C0.99 4.33 1.98 4.66 3 5 C3 5.66 3 6.32 3 7 C0.36 7 -2.28 7 -5 7 C-4.21654285 5.82780457 -3.42297164 4.66236332 -2.625 3.5 C-2.18414062 2.8503125 -1.74328125 2.200625 -1.2890625 1.53125 C-0.65097656 0.77328125 -0.65097656 0.77328125 0 0 Z " fill="#AFB4B7" transform="translate(110,42)"/>
<path d="M0 0 C1.65 0 3.3 0 5 0 C5.33 1.32 5.66 2.64 6 4 C4.35 4.33 2.7 4.66 1 5 C0.67 3.35 0.34 1.7 0 0 Z " fill="#373C3F" transform="translate(17,41)"/>
<path d="M0 0 C-2.3129482 2.3129482 -3.47904875 2.49580975 -6.625 3.125 C-7.44226562 3.29257813 -8.25953125 3.46015625 -9.1015625 3.6328125 C-10.04128906 3.81457031 -10.04128906 3.81457031 -11 4 C-10 1 -10 1 -8.3125 -0.25 C-5.26772958 -1.23749311 -3.08088616 -0.7002014 0 0 Z " fill="#C6CACD" transform="translate(50,5)"/>
<path d="M0 0 C0.66 0 1.32 0 2 0 C2 1.98 2 3.96 2 6 C1.01 6.33 0.02 6.66 -1 7 C-1.33 7.99 -1.66 8.98 -2 10 C-2.25 3.375 -2.25 3.375 0 0 Z " fill="#222629" transform="translate(70,69)"/>
<path d="M0 0 C0 0.66 0 1.32 0 2 C0.99 2 1.98 2 3 2 C3 2.66 3 3.32 3 4 C1.68 3.67 0.36 3.34 -1 3 C-1 3.99 -1 4.98 -1 6 C-1.33 6.66 -1.66 7.32 -2 8 C-3.32 6.35 -4.64 4.7 -6 3 C-3.375 0 -3.375 0 0 0 Z " fill="#ACB1B4" transform="translate(96,29)"/>
<path d="M0 0 C4.29 0 8.58 0 13 0 C13 0.99 13 1.98 13 3 C10.36 3 7.72 3 5 3 C5 2.67 5 2.34 5 2 C3.35 1.67 1.7 1.34 0 1 C0 0.67 0 0.34 0 0 Z " fill="#C3C7CA" transform="translate(58,0)"/>
<path d="M0 0 C2.31 0.66 4.62 1.32 7 2 C5.7260411 4.03833424 4.38938077 6.03852126 3 8 C2.34 8 1.68 8 1 8 C1 6.68 1 5.36 1 4 C1.66 3.67 2.32 3.34 3 3 C2.01 2.67 1.02 2.34 0 2 C0 1.34 0 0.68 0 0 Z " fill="#404548" transform="translate(89,24)"/>
<path d="M0 0 C0.33 0.66 0.66 1.32 1 2 C1.99 2 2.98 2 4 2 C3.67 3.65 3.34 5.3 3 7 C1.125 6.75 1.125 6.75 -1 6 C-2.25 3.9375 -2.25 3.9375 -3 2 C-2.01 2 -1.02 2 0 2 C0 1.34 0 0.68 0 0 Z " fill="#ACB0B3" transform="translate(47,108)"/>
<path d="M0 0 C2.97 0.495 2.97 0.495 6 1 C5.67 2.32 5.34 3.64 5 5 C3.35 4.67 1.7 4.34 0 4 C0 2.68 0 1.36 0 0 Z M3 5 C3.66 5 4.32 5 5 5 C5 5.99 5 6.98 5 8 C4.34 8 3.68 8 3 8 C3 7.01 3 6.02 3 5 Z " fill="#53585B" transform="translate(52,15)"/>
<path d="M0 0 C2.0625 2.3125 2.0625 2.3125 4 5 C3.67 5.99 3.34 6.98 3 8 C0.69 6.35 -1.62 4.7 -4 3 C-2.68 2.67 -1.36 2.34 0 2 C0 1.34 0 0.68 0 0 Z " fill="#2E3336" transform="translate(86,23)"/>
<path d="M0 0 C0.33 0.99 0.66 1.98 1 3 C-1.64 3.33 -4.28 3.66 -7 4 C-7.33 3.34 -7.66 2.68 -8 2 C-7.34 2 -6.68 2 -6 2 C-6 1.34 -6 0.68 -6 0 C-3 -1 -3 -1 0 0 Z " fill="#B8BCBF" transform="translate(90,4)"/>
<path d="M0 0 C0.66 0.33 1.32 0.66 2 1 C1.19152271 2.16945792 0.37810888 3.33550461 -0.4375 4.5 C-0.88996094 5.1496875 -1.34242187 5.799375 -1.80859375 6.46875 C-2.20175781 6.9740625 -2.59492187 7.479375 -3 8 C-3.33 8 -3.66 8 -4 8 C-3.67 5.69 -3.34 3.38 -3 1 C-2.01 0.67 -1.02 0.34 0 0 Z " fill="#111518" transform="translate(99,82)"/>
<path d="M0 0 C0.33 0 0.66 0 1 0 C1 2.97 1 5.94 1 9 C0.01 9 -0.98 9 -2 9 C-1.125 2.25 -1.125 2.25 0 0 Z " fill="#090D10" transform="translate(103,63)"/>
<path d="M0 0 C2.09749995 2.35968744 2.96905704 3.54616994 3.1875 6.75 C3.125625 7.4925 3.06375 8.235 3 9 C2.34 9 1.68 9 1 9 C-1.09230769 4.56923077 -1.09230769 4.56923077 -0.625 1.6875 C-0.41875 1.130625 -0.2125 0.57375 0 0 Z " fill="#C8CCCF" transform="translate(120,39)"/>
<path d="M0 0 C1.67542976 0.28604898 3.34385343 0.61781233 5 1 C4.67 1.99 4.34 2.98 4 4 C3.443125 3.773125 2.88625 3.54625 2.3125 3.3125 C-0.92123084 2.87550935 -2.39073978 4.18801373 -5 6 C-5 5.01 -5 4.02 -5 3 C-4.360625 2.690625 -3.72125 2.38125 -3.0625 2.0625 C-1.06389179 1.1654837 -1.06389179 1.1654837 0 0 Z " fill="#B4B9BC" transform="translate(24,14)"/>
<path d="M0 0 C1.32 0.33 2.64 0.66 4 1 C4 2.98 4 4.96 4 7 C4.66 7.33 5.32 7.66 6 8 C4.68 7.67 3.36 7.34 2 7 C2 6.01 2 5.02 2 4 C1.34 4 0.68 4 0 4 C0 2.68 0 1.36 0 0 Z " fill="#B8BDC0" transform="translate(44,14)"/>
<path d="M0 0 C2.97 0.495 2.97 0.495 6 1 C6 2.32 6 3.64 6 5 C4.35 5 2.7 5 1 5 C0.67 3.35 0.34 1.7 0 0 Z " fill="#2F3437" transform="translate(76,9)"/>
<path d="M0 0 C0.33 0.66 0.66 1.32 1 2 C1.99 2.33 2.98 2.66 4 3 C3.01 4.485 3.01 4.485 2 6 C1.01 6 0.02 6 -1 6 C-1.66 4.68 -2.32 3.36 -3 2 C-2.01 2 -1.02 2 0 2 C0 1.34 0 0.68 0 0 Z " fill="#B5B9BC" transform="translate(80,108)"/>
<path d="M0 0 C0.5534764 2.07553648 1 3.84365964 1 6 C-0.98 6 -2.96 6 -5 6 C-3.35 4.02 -1.7 2.04 0 0 Z " fill="#0E1114" transform="translate(70,99)"/>
<path d="M0 0 C1.98 0.495 1.98 0.495 4 1 C4.33 2.32 4.66 3.64 5 5 C3.02 5.33 1.04 5.66 -1 6 C-0.67 4.02 -0.34 2.04 0 0 Z " fill="#B7BCBF" transform="translate(116,29)"/>
<path d="M0 0 C-1.38877354 3.35620271 -2.91677965 5.07298728 -6 7 C-6.66 7 -7.32 7 -8 7 C-6.76759083 3.3027725 -4.20634615 0 0 0 Z " fill="#B2B7BA" transform="translate(107,30)"/>
<path d="M0 0 C1.32 0 2.64 0 4 0 C4 0.99 4 1.98 4 3 C3.01 3.495 3.01 3.495 2 4 C1.34786708 6.02463255 1.34786708 6.02463255 1 8 C0.01 7.67 -0.98 7.34 -2 7 C-1.34 7 -0.68 7 0 7 C0 4.69 0 2.38 0 0 Z " fill="#6C7174" transform="translate(69,12)"/>
<path d="M0 0 C2.475 0.99 2.475 0.99 5 2 C4.34 3.65 3.68 5.3 3 7 C1.68 5.68 0.36 4.36 -1 3 C-0.67 2.01 -0.34 1.02 0 0 Z " fill="#3C4144" transform="translate(94,31)"/>
<path d="M0 0 C0.99 1.32 1.98 2.64 3 4 C2.67 4.66 2.34 5.32 2 6 C1.34 5.67 0.68 5.34 0 5 C0 5.66 0 6.32 0 7 C-0.66 6.67 -1.32 6.34 -2 6 C-2 4.35 -2 2.7 -2 1 C-1.34 0.67 -0.68 0.34 0 0 Z " fill="#404548" transform="translate(31,30)"/>
<path d="M0 0 C0.66 0 1.32 0 2 0 C1.01 2.97 0.02 5.94 -1 9 C-1.66 9 -2.32 9 -3 9 C-2.44271087 5.65626525 -1.64826111 2.96687001 0 0 Z " fill="#B7BBBE" transform="translate(87,15)"/>
<path d="M0 0 C0.33 0.99 0.66 1.98 1 3 C0.34 3 -0.32 3 -1 3 C-1 4.32 -1 5.64 -1 7 C-2.32 6.34 -3.64 5.68 -5 5 C-4.34 5 -3.68 5 -3 5 C-3.33 3.68 -3.66 2.36 -4 1 C-2.02 1.495 -2.02 1.495 0 2 C0 1.34 0 0.68 0 0 Z " fill="#4A4E51" transform="translate(82,112)"/>
<path d="M0 0 C1 3 1 3 0.0625 5.1875 C-0.4634375 6.0846875 -0.4634375 6.0846875 -1 7 C-1.66 7 -2.32 7 -3 7 C-3.1875 4.625 -3.1875 4.625 -3 2 C-2.01 1.34 -1.02 0.68 0 0 Z " fill="#C6CACD" transform="translate(121,85)"/>
<path d="M0 0 C2 1 2 1 3.125 4.0625 C3.41375 5.031875 3.7025 6.00125 4 7 C2.68 7 1.36 7 0 7 C0 4.69 0 2.38 0 0 Z " fill="#1A1E21" transform="translate(36,87)"/>
<path d="M0 0 C2.31 0.33 4.62 0.66 7 1 C7 1.66 7 2.32 7 3 C5.02 3.33 3.04 3.66 1 4 C1.33 3.34 1.66 2.68 2 2 C1.34 1.34 0.68 0.68 0 0 Z " fill="#05090C" transform="translate(64,52)"/>
<path d="M0 0 C2.475 0.99 2.475 0.99 5 2 C4.01 3.485 4.01 3.485 3 5 C1.35 4.01 -0.3 3.02 -2 2 C-1.34 1.34 -0.68 0.68 0 0 Z " fill="#101417" transform="translate(70,47)"/>
<path d="M0 0 C3.7952131 1.49097658 5.61042731 3.75700849 8 7 C7.01 7.33 6.02 7.66 5 8 C1.125 2.25 1.125 2.25 0 0 Z " fill="#14191C" transform="translate(72,32)"/>
<path d="M0 0 C7.75 1.625 7.75 1.625 10 5 C2.42857143 3.14285714 2.42857143 3.14285714 0 0 Z " fill="#6B7073" transform="translate(92,14)"/>
<path d="M0 0 C1.65 0 3.3 0 5 0 C5 0.33 5 0.66 5 1 C6.65 1.33 8.3 1.66 10 2 C9.67 2.66 9.34 3.32 9 4 C5.625 3.6875 5.625 3.6875 2 3 C1.34 2.01 0.68 1.02 0 0 Z " fill="#3A3F42" transform="translate(77,91)"/>
<path d="M0 0 C0.33 0 0.66 0 1 0 C1 2.31 1 4.62 1 7 C-0.32 7 -1.64 7 -3 7 C-1.125 2.25 -1.125 2.25 0 0 Z " fill="#181C1F" transform="translate(91,87)"/>
<path d="M0 0 C0.99 0.33 1.98 0.66 3 1 C2.67 2.98 2.34 4.96 2 7 C1.34 6.67 0.68 6.34 0 6 C0 4.02 0 2.04 0 0 Z " fill="#C1C6C9" transform="translate(121,77)"/>
<path d="M0 0 C0.33 0 0.66 0 1 0 C1 1.98 1 3.96 1 6 C0.67 6 0.34 6 0 6 C0 4.02 0 2.04 0 0 Z " fill="#8E9295" transform="translate(0,74)"/>
<path d="M0 0 C0.66 0.33 1.32 0.66 2 1 C0.68 1.33 -0.64 1.66 -2 2 C-1.34 1.34 -0.68 0.68 0 0 Z " fill="#ACB1B4" transform="translate(89,123)"/>
<path d="M0 0 C0.66 1.32 1.32 2.64 2 4 C1.34 4 0.68 4 0 4 C0 2.68 0 1.36 0 0 Z " fill="#9CA1A4" transform="translate(126,79)"/>
<path d="M0 0 C4 1 4 1 4 1 Z " fill="#A1A5A8" transform="translate(78,127)"/>
<path d="M0 0 C4 1 4 1 4 1 Z " fill="#979B9E" transform="translate(46,127)"/>
<path d="M0 0 C1 4 1 4 1 4 Z " fill="#9CA1A4" transform="translate(127,75)"/>
<path d="M0 0 C1 4 1 4 1 4 Z " fill="#6A6E71" transform="translate(1,46)"/>
<path d="M0 0 C0 3 0 3 0 3 Z " fill="#6B6F72" transform="translate(2,43)"/>
<path d="M0 0 C4 1 4 1 4 1 Z " fill="#A6ABAE" transform="translate(77,0)"/>
<path d="M0 0 C4 1 4 1 4 1 Z " fill="#A0A5A8" transform="translate(47,0)"/>
<path d="M0 0 C0.66 0 1.32 0 2 0 C1.67 0.66 1.34 1.32 1 2 C0.67 1.34 0.34 0.68 0 0 Z " fill="#A1A6A9" transform="translate(82,126)"/>
<path d="M0 0 C3 1 3 1 3 1 Z " fill="#ADB1B4" transform="translate(84,125)"/>
<path d="M0 0 C3 1 3 1 3 1 Z " fill="#A0A5A8" transform="translate(38,124)"/>
<path d="M0 0 C0.33 0.66 0.66 1.32 1 2 C0.34 1.67 -0.32 1.34 -1 1 C-0.67 0.67 -0.34 0.34 0 0 Z " fill="#B2B6B9" transform="translate(112,106)"/>
<path d="" fill="#A8ACAF" transform="translate(0,0)"/>
<path d="" fill="#717578" transform="translate(0,0)"/>
<path d="M0 0 C3 1 3 1 3 1 Z " fill="#9A9EA1" transform="translate(84,2)"/>
<path d="M0 0 C3 1 3 1 3 1 Z " fill="#8B8F92" transform="translate(41,2)"/>
<path d="M0 0 C3 1 3 1 3 1 Z " fill="#929699" transform="translate(81,1)"/>
<path d="M0 0 C3 1 3 1 3 1 Z " fill="#858A8D" transform="translate(44,1)"/>
<path d="M0 0 C2 1 2 1 2 1 Z " fill="#A2A6A9" transform="translate(44,126)"/>
<path d="M0 0 C2 1 2 1 2 1 Z " fill="#A1A6A9" transform="translate(41,125)"/>
<path d="" fill="#999EA1" transform="translate(0,0)"/>
<path d="M0 0 C2 1 2 1 2 1 Z " fill="#B0B5B8" transform="translate(93,121)"/>
<path d="M0 0 C2 1 2 1 2 1 Z " fill="#A3A7AA" transform="translate(29,119)"/>
<path d="M0 0 C2 1 2 1 2 1 Z " fill="#B1B5B8" transform="translate(98,118)"/>
<path d="M0 0 C2 1 2 1 2 1 Z " fill="#A1A5A8" transform="translate(26,117)"/>
<path d="M0 0 C2 1 2 1 2 1 Z " fill="#B1B5B8" transform="translate(101,116)"/>
<path d="" fill="#ABAFB2" transform="translate(0,0)"/>
<path d="" fill="#A4A8AB" transform="translate(0,0)"/>
<path d="" fill="#A8ACAF" transform="translate(0,0)"/>
<path d="" fill="#AAAEB1" transform="translate(0,0)"/>
<path d="" fill="#ADB1B4" transform="translate(0,0)"/>
<path d="M0 0 C2 1 2 1 2 1 Z " fill="#A1A5A8" transform="translate(24,12)"/>
<path d="M0 0 C2 1 2 1 2 1 Z " fill="#9FA3A6" transform="translate(28,9)"/>
<path d="M0 0 C2 1 2 1 2 1 Z " fill="#A4A9AC" transform="translate(97,8)"/>
<path d="M0 0 C2 1 2 1 2 1 Z " fill="#A9ADB0" transform="translate(93,6)"/>
<path d="M0 0 C2 1 2 1 2 1 Z " fill="#9BA0A3" transform="translate(33,6)"/>
<path d="M0 0 C2 1 2 1 2 1 Z " fill="#9CA0A3" transform="translate(35,5)"/>
<path d="M0 0 C2 1 2 1 2 1 Z " fill="#9A9EA1" transform="translate(37,4)"/>
<path d="M0 0 C2 1 2 1 2 1 Z " fill="#93979A" transform="translate(39,3)"/>
<path d="" fill="#484C4F" transform="translate(0,0)"/>
<path d="" fill="#4F5457" transform="translate(0,0)"/>
<path d="" fill="#7C8083" transform="translate(0,0)"/>
<path d="" fill="#A3A8AB" transform="translate(0,0)"/>
<path d="" fill="#AEB3B6" transform="translate(0,0)"/>
<path d="" fill="#A3A8AB" transform="translate(0,0)"/>
<path d="" fill="#B2B7BA" transform="translate(0,0)"/>
<path d="" fill="#A8ADB0" transform="translate(0,0)"/>
<path d="" fill="#B1B6B9" transform="translate(0,0)"/>
<path d="" fill="#A2A6A9" transform="translate(0,0)"/>
<path d="" fill="#B2B6B9" transform="translate(0,0)"/>
<path d="" fill="#424649" transform="translate(0,0)"/>
<path d="" fill="#9DA1A4" transform="translate(0,0)"/>
<path d="" fill="#B0B4B7" transform="translate(0,0)"/>
<path d="" fill="#A3A7AA" transform="translate(0,0)"/>
<path d="" fill="#B1B5B8" transform="translate(0,0)"/>
<path d="" fill="#A5A9AC" transform="translate(0,0)"/>
<path d="" fill="#B2B6B9" transform="translate(0,0)"/>
<path d="" fill="#B4B8BB" transform="translate(0,0)"/>
<path d="" fill="#484C4F" transform="translate(0,0)"/>
<path d="" fill="#A8ACAF" transform="translate(0,0)"/>
<path d="" fill="#B5B9BC" transform="translate(0,0)"/>
<path d="" fill="#989C9F" transform="translate(0,0)"/>
<path d="" fill="#B5B9BC" transform="translate(0,0)"/>
<path d="" fill="#B5B9BC" transform="translate(0,0)"/>
<path d="" fill="#B5B9BC" transform="translate(0,0)"/>
<path d="" fill="#A8ACAF" transform="translate(0,0)"/>
<path d="" fill="#A0A4A7" transform="translate(0,0)"/>
<path d="" fill="#A5A9AC" transform="translate(0,0)"/>
<path d="" fill="#B1B5B8" transform="translate(0,0)"/>
<path d="" fill="#A1A5A8" transform="translate(0,0)"/>
<path d="" fill="#4A4E51" transform="translate(0,0)"/>
<path d="" fill="#919699" transform="translate(0,0)"/>
<path d="" fill="#4D5154" transform="translate(0,0)"/>
<path d="" fill="#4C5053" transform="translate(0,0)"/>
<path d="" fill="#A0A4A7" transform="translate(0,0)"/>
<path d="" fill="#52575A" transform="translate(0,0)"/>
<path d="" fill="#ADB1B4" transform="translate(0,0)"/>
<path d="" fill="#AEB3B6" transform="translate(0,0)"/>
<path d="" fill="#9DA2A5" transform="translate(0,0)"/>
<path d="" fill="#53585B" transform="translate(0,0)"/>
<path d="" fill="#969A9D" transform="translate(0,0)"/>
<path d="" fill="#B0B5B8" transform="translate(0,0)"/>
<path d="" fill="#A3A8AB" transform="translate(0,0)"/>
<path d="" fill="#4E5255" transform="translate(0,0)"/>
<path d="" fill="#54585B" transform="translate(0,0)"/>
<path d="" fill="#999EA1" transform="translate(0,0)"/>
<path d="" fill="#B2B7BA" transform="translate(0,0)"/>
<path d="" fill="#A4A9AC" transform="translate(0,0)"/>
<path d="" fill="#B2B7BA" transform="translate(0,0)"/>
<path d="" fill="#525759" transform="translate(0,0)"/>
<path d="" fill="#B2B7BA" transform="translate(0,0)"/>
<path d="" fill="#B1B6B9" transform="translate(0,0)"/>
<path d="" fill="#A5AAAD" transform="translate(0,0)"/>
<path d="" fill="#4E5355" transform="translate(0,0)"/>
<path d="" fill="#555A5D" transform="translate(0,0)"/>
<path d="" fill="#AFB4B7" transform="translate(0,0)"/>
<path d="" fill="#A3A8AB" transform="translate(0,0)"/>
<path d="" fill="#ACB1B4" transform="translate(0,0)"/>
<path d="" fill="#A0A4A7" transform="translate(0,0)"/>
<path d="" fill="#ABAFB2" transform="translate(0,0)"/>
<path d="" fill="#9CA0A3" transform="translate(0,0)"/>
<path d="" fill="#505457" transform="translate(0,0)"/>
<path d="" fill="#AFB3B6" transform="translate(0,0)"/>
<path d="" fill="#A4A9AC" transform="translate(0,0)"/>
<path d="" fill="#ACB0B3" transform="translate(0,0)"/>
<path d="" fill="#9CA0A3" transform="translate(0,0)"/>
<path d="" fill="#A8ACAF" transform="translate(0,0)"/>
<path d="" fill="#4F5356" transform="translate(0,0)"/>
<path d="" fill="#9CA1A4" transform="translate(0,0)"/>
<path d="" fill="#ACB0B3" transform="translate(0,0)"/>
<path d="" fill="#9FA3A6" transform="translate(0,0)"/>
<path d="" fill="#A5A9AC" transform="translate(0,0)"/>
<path d="" fill="#A2A6A9" transform="translate(0,0)"/>
<path d="" fill="#55595C" transform="translate(0,0)"/>
</svg>
